<svg width="564" height="250" viewBox="0 0 564 250" fill="none" xmlns="http://www.w3.org/2000/svg">
<rect x="203.748" y="1.74765" width="146.505" height="83.5047" stroke="#ABB2FA" style="stroke:#ABB2FA;stroke:color(display-p3 0.6706 0.6990 0.9799);stroke-opacity:1;" stroke-width="3.4953"/>
<rect x="1.74765" y="84.7477" width="136.505" height="56.5047" stroke="#ABB2FA" style="stroke:#ABB2FA;stroke:color(display-p3 0.6706 0.6990 0.9799);stroke-opacity:1;" stroke-width="3.4953"/>
<rect x="405.748" y="84.7477" width="156.505" height="56.5047" stroke="#CCCFEE" style="stroke:#CCCFEE;stroke:color(display-p3 0.7991 0.8104 0.9346);stroke-opacity:1;" stroke-width="3.4953"/>
<rect x="250" y="195" width="54.1588" height="54.1588" fill="#7780D9" style="fill:#7780D9;fill:color(display-p3 0.4667 0.5020 0.8510);fill-opacity:1;"/>
<rect x="254.166" y="199.166" width="45.8266" height="45.8266" fill="#B9BFFF" style="fill:#B9BFFF;fill:color(display-p3 0.7246 0.7499 1.0000);fill-opacity:1;"/>
<path d="M256.249 201.249H260.415V205.415H256.249V201.249Z" fill="#B0B7FF" style="fill:#B0B7FF;fill:color(display-p3 0.6897 0.7182 1.0000);fill-opacity:1;"/>
<path d="M256.249 207.498H260.415V211.664H256.249V207.498Z" fill="#B0B7FF" style="fill:#B0B7FF;fill:color(display-p3 0.6897 0.7182 1.0000);fill-opacity:1;"/>
<path d="M256.249 213.747H260.415V217.913H256.249V213.747Z" fill="#B0B7FF" style="fill:#B0B7FF;fill:color(display-p3 0.6897 0.7182 1.0000);fill-opacity:1;"/>
<path d="M256.249 219.996H260.415V224.162H256.249V219.996Z" fill="#ABB2FA" style="fill:#ABB2FA;fill:color(display-p3 0.6706 0.6990 0.9799);fill-opacity:1;"/>
<path d="M256.249 226.245H260.415V230.411H256.249V226.245Z" fill="#ABB2FA" style="fill:#ABB2FA;fill:color(display-p3 0.6706 0.6990 0.9799);fill-opacity:1;"/>
<path d="M256.249 232.495H260.415V236.661H256.249V232.495Z" fill="#ABB2FA" style="fill:#ABB2FA;fill:color(display-p3 0.6706 0.6990 0.9799);fill-opacity:1;"/>
<path d="M256.249 238.744H260.415V242.91H256.249V238.744Z" fill="#969FF4" style="fill:#969FF4;fill:color(display-p3 0.5882 0.6220 0.9566);fill-opacity:1;"/>
<path d="M274.997 201.249H279.163V205.415H274.997V201.249Z" fill="#ABB2FA" style="fill:#ABB2FA;fill:color(display-p3 0.6706 0.6990 0.9799);fill-opacity:1;"/>
<path d="M274.997 207.498H279.163V211.664H274.997V207.498Z" fill="#ABB2FA" style="fill:#ABB2FA;fill:color(display-p3 0.6706 0.6990 0.9799);fill-opacity:1;"/>
<path d="M274.997 213.747H279.163V217.913H274.997V213.747Z" fill="#ABB2FA" style="fill:#ABB2FA;fill:color(display-p3 0.6706 0.6990 0.9799);fill-opacity:1;"/>
<path d="M274.997 219.996H279.163V224.162H274.997V219.996Z" fill="#969FF4" style="fill:#969FF4;fill:color(display-p3 0.5882 0.6220 0.9566);fill-opacity:1;"/>
<path d="M274.997 226.245H279.163V230.411H274.997V226.245Z" fill="#969FF4" style="fill:#969FF4;fill:color(display-p3 0.5882 0.6220 0.9566);fill-opacity:1;"/>
<path d="M274.997 232.495H279.163V236.661H274.997V232.495Z" fill="#969FF4" style="fill:#969FF4;fill:color(display-p3 0.5882 0.6220 0.9566);fill-opacity:1;"/>
<path d="M274.997 238.744H279.163V242.91H274.997V238.744Z" fill="#969FF4" style="fill:#969FF4;fill:color(display-p3 0.5882 0.6220 0.9566);fill-opacity:1;"/>
<path d="M262.499 201.249H266.665V205.415H262.499V201.249Z" fill="#B0B7FF" style="fill:#B0B7FF;fill:color(display-p3 0.6897 0.7182 1.0000);fill-opacity:1;"/>
<path d="M262.499 207.498H266.665V211.664H262.499V207.498Z" fill="#B0B7FF" style="fill:#B0B7FF;fill:color(display-p3 0.6897 0.7182 1.0000);fill-opacity:1;"/>
<path d="M262.499 213.747H266.665V217.913H262.499V213.747Z" fill="#ABB2FA" style="fill:#ABB2FA;fill:color(display-p3 0.6706 0.6990 0.9799);fill-opacity:1;"/>
<path d="M262.499 219.996H266.665V224.162H262.499V219.996Z" fill="#ABB2FA" style="fill:#ABB2FA;fill:color(display-p3 0.6706 0.6990 0.9799);fill-opacity:1;"/>
<path d="M262.499 226.245H266.665V230.411H262.499V226.245Z" fill="#ABB2FA" style="fill:#ABB2FA;fill:color(display-p3 0.6706 0.6990 0.9799);fill-opacity:1;"/>
<path d="M262.499 232.495H266.665V236.661H262.499V232.495Z" fill="#969FF4" style="fill:#969FF4;fill:color(display-p3 0.5882 0.6220 0.9566);fill-opacity:1;"/>
<path d="M262.499 238.744H266.665V242.91H262.499V238.744Z" fill="#969FF4" style="fill:#969FF4;fill:color(display-p3 0.5882 0.6220 0.9566);fill-opacity:1;"/>
<path d="M281.246 201.249H285.412V205.415H281.246V201.249Z" fill="#ABB2FA" style="fill:#ABB2FA;fill:color(display-p3 0.6706 0.6990 0.9799);fill-opacity:1;"/>
<path d="M281.246 207.498H285.412V211.664H281.246V207.498Z" fill="#ABB2FA" style="fill:#ABB2FA;fill:color(display-p3 0.6706 0.6990 0.9799);fill-opacity:1;"/>
<path d="M281.246 213.747H285.412V217.913H281.246V213.747Z" fill="#969FF4" style="fill:#969FF4;fill:color(display-p3 0.5882 0.6220 0.9566);fill-opacity:1;"/>
<path d="M281.246 219.996H285.412V224.162H281.246V219.996Z" fill="#969FF4" style="fill:#969FF4;fill:color(display-p3 0.5882 0.6220 0.9566);fill-opacity:1;"/>
<path d="M281.246 226.245H285.412V230.411H281.246V226.245Z" fill="#969FF4" style="fill:#969FF4;fill:color(display-p3 0.5882 0.6220 0.9566);fill-opacity:1;"/>
<path d="M281.246 232.495H285.412V236.661H281.246V232.495Z" fill="#969FF4" style="fill:#969FF4;fill:color(display-p3 0.5882 0.6220 0.9566);fill-opacity:1;"/>
<path d="M281.246 238.744H285.412V242.91H281.246V238.744Z" fill="#969FF4" style="fill:#969FF4;fill:color(display-p3 0.5882 0.6220 0.9566);fill-opacity:1;"/>
<path d="M268.747 201.249H272.913V205.415H268.747V201.249Z" fill="#B0B7FF" style="fill:#B0B7FF;fill:color(display-p3 0.6897 0.7182 1.0000);fill-opacity:1;"/>
<path d="M268.747 207.498H272.913V211.664H268.747V207.498Z" fill="#ABB2FA" style="fill:#ABB2FA;fill:color(display-p3 0.6706 0.6990 0.9799);fill-opacity:1;"/>
<path d="M268.747 213.747H272.913V217.913H268.747V213.747Z" fill="#ABB2FA" style="fill:#ABB2FA;fill:color(display-p3 0.6706 0.6990 0.9799);fill-opacity:1;"/>
<path d="M268.747 219.996H272.913V224.162H268.747V219.996Z" fill="#ABB2FA" style="fill:#ABB2FA;fill:color(display-p3 0.6706 0.6990 0.9799);fill-opacity:1;"/>
<path d="M268.747 226.245H272.913V230.411H268.747V226.245Z" fill="#969FF4" style="fill:#969FF4;fill:color(display-p3 0.5882 0.6220 0.9566);fill-opacity:1;"/>
<path d="M268.747 232.495H272.913V236.661H268.747V232.495Z" fill="#969FF4" style="fill:#969FF4;fill:color(display-p3 0.5882 0.6220 0.9566);fill-opacity:1;"/>
<path d="M268.747 238.744H272.913V242.91H268.747V238.744Z" fill="#969FF4" style="fill:#969FF4;fill:color(display-p3 0.5882 0.6220 0.9566);fill-opacity:1;"/>
<path d="M287.495 201.249H291.661V205.415H287.495V201.249Z" fill="#ABB2FA" style="fill:#ABB2FA;fill:color(display-p3 0.6706 0.6990 0.9799);fill-opacity:1;"/>
<path d="M287.495 207.498H291.661V211.664H287.495V207.498Z" fill="#969FF4" style="fill:#969FF4;fill:color(display-p3 0.5882 0.6220 0.9566);fill-opacity:1;"/>
<path d="M287.495 213.747H291.661V217.913H287.495V213.747Z" fill="#969FF4" style="fill:#969FF4;fill:color(display-p3 0.5882 0.6220 0.9566);fill-opacity:1;"/>
<path d="M287.495 219.996H291.661V224.162H287.495V219.996Z" fill="#969FF4" style="fill:#969FF4;fill:color(display-p3 0.5882 0.6220 0.9566);fill-opacity:1;"/>
<path d="M287.495 226.245H291.661V230.411H287.495V226.245Z" fill="#969FF4" style="fill:#969FF4;fill:color(display-p3 0.5882 0.6220 0.9566);fill-opacity:1;"/>
<path d="M287.495 232.495H291.661V236.661H287.495V232.495Z" fill="#969FF4" style="fill:#969FF4;fill:color(display-p3 0.5882 0.6220 0.9566);fill-opacity:1;"/>
<path d="M287.495 238.744H291.661V242.91H287.495V238.744Z" fill="#969FF4" style="fill:#969FF4;fill:color(display-p3 0.5882 0.6220 0.9566);fill-opacity:1;"/>
<path d="M293.744 201.249H297.91V205.415H293.744V201.249Z" fill="#969FF4" style="fill:#969FF4;fill:color(display-p3 0.5882 0.6220 0.9566);fill-opacity:1;"/>
<path d="M293.744 207.498H297.91V211.664H293.744V207.498Z" fill="#969FF4" style="fill:#969FF4;fill:color(display-p3 0.5882 0.6220 0.9566);fill-opacity:1;"/>
<path d="M293.744 213.747H297.91V217.913H293.744V213.747Z" fill="#969FF4" style="fill:#969FF4;fill:color(display-p3 0.5882 0.6220 0.9566);fill-opacity:1;"/>
<path d="M293.744 219.996H297.91V224.162H293.744V219.996Z" fill="#969FF4" style="fill:#969FF4;fill:color(display-p3 0.5882 0.6220 0.9566);fill-opacity:1;"/>
<path d="M293.744 226.245H297.91V230.411H293.744V226.245Z" fill="#969FF4" style="fill:#969FF4;fill:color(display-p3 0.5882 0.6220 0.9566);fill-opacity:1;"/>
<path d="M293.744 232.495H297.91V236.661H293.744V232.495Z" fill="#969FF4" style="fill:#969FF4;fill:color(display-p3 0.5882 0.6220 0.9566);fill-opacity:1;"/>
<path d="M293.744 238.744H297.91V242.91H293.744V238.744Z" fill="#969FF4" style="fill:#969FF4;fill:color(display-p3 0.5882 0.6220 0.9566);fill-opacity:1;"/>
<line x1="70" y1="222" x2="140" y2="222" stroke="black" stroke-opacity="0.2" style="stroke:black;stroke-opacity:0.2;" stroke-width="2"/>
<line x1="161" y1="222" x2="245" y2="222" stroke="black" stroke-opacity="0.2" style="stroke:black;stroke-opacity:0.2;" stroke-width="2"/>
<line x1="165" y1="37" x2="193" y2="37" stroke="black" stroke-opacity="0.2" style="stroke:black;stroke-opacity:0.2;" stroke-width="2"/>
<line x1="70" y1="37" x2="144" y2="37" stroke="black" stroke-opacity="0.2" style="stroke:black;stroke-opacity:0.2;" stroke-width="2"/>
<line x1="310" y1="222" x2="403" y2="222" stroke="black" stroke-opacity="0.2" style="stroke:black;stroke-opacity:0.2;" stroke-width="2"/>
<line x1="425" y1="222" x2="484" y2="222" stroke="black" stroke-opacity="0.2" style="stroke:black;stroke-opacity:0.2;" stroke-width="2"/>
<path d="M407 221.5L421.25 213.273L421.25 229.727L407 221.5Z" fill="#ABB2FA" style="fill:#ABB2FA;fill:color(display-p3 0.6706 0.6990 0.9799);fill-opacity:1;"/>
<path d="M143 221.5L157.25 213.273L157.25 229.727L143 221.5Z" fill="#ABB2FA" style="fill:#ABB2FA;fill:color(display-p3 0.6706 0.6990 0.9799);fill-opacity:1;"/>
<line x1="71" y1="156" x2="71" y2="221" stroke="black" stroke-opacity="0.2" style="stroke:black;stroke-opacity:0.2;" stroke-width="2"/>
<line x1="71" y1="38" x2="71" y2="76" stroke="black" stroke-opacity="0.2" style="stroke:black;stroke-opacity:0.2;" stroke-width="2"/>
<line x1="485" y1="156" x2="485" y2="223" stroke="black" stroke-opacity="0.2" style="stroke:black;stroke-opacity:0.2;" stroke-width="2"/>
<path d="M443.995 110.16C443.27 110.16 442.635 110.027 442.091 109.76C441.558 109.483 441.142 109.088 440.843 108.576C440.555 108.053 440.411 107.445 440.411 106.752V101.568C440.411 100.864 440.555 100.256 440.843 99.744C441.142 99.232 441.558 98.8427 442.091 98.576C442.635 98.2987 443.27 98.16 443.995 98.16C444.721 98.16 445.35 98.2987 445.883 98.576C446.417 98.8533 446.827 99.248 447.115 99.76C447.414 100.261 447.563 100.864 447.563 101.568H445.835C445.835 100.96 445.675 100.496 445.355 100.176C445.035 99.856 444.582 99.696 443.995 99.696C443.409 99.696 442.95 99.856 442.619 100.176C442.299 100.496 442.139 100.955 442.139 101.552V106.752C442.139 107.349 442.299 107.813 442.619 108.144C442.95 108.464 443.409 108.624 443.995 108.624C444.582 108.624 445.035 108.464 445.355 108.144C445.675 107.813 445.835 107.349 445.835 106.752H447.563C447.563 107.445 447.414 108.048 447.115 108.56C446.827 109.072 446.417 109.467 445.883 109.744C445.35 110.021 444.721 110.16 443.995 110.16ZM452.725 110.144C452 110.144 451.37 110.005 450.837 109.728C450.304 109.451 449.893 109.056 449.605 108.544C449.317 108.032 449.173 107.429 449.173 106.736V104.464C449.173 103.76 449.317 103.157 449.605 102.656C449.893 102.144 450.304 101.749 450.837 101.472C451.37 101.195 452 101.056 452.725 101.056C453.45 101.056 454.08 101.195 454.613 101.472C455.146 101.749 455.557 102.144 455.845 102.656C456.133 103.157 456.277 103.76 456.277 104.464V106.736C456.277 107.429 456.133 108.032 455.845 108.544C455.557 109.056 455.146 109.451 454.613 109.728C454.08 110.005 453.45 110.144 452.725 110.144ZM452.725 108.624C453.312 108.624 453.765 108.464 454.085 108.144C454.405 107.813 454.565 107.344 454.565 106.736V104.464C454.565 103.845 454.405 103.376 454.085 103.056C453.765 102.736 453.312 102.576 452.725 102.576C452.149 102.576 451.696 102.736 451.365 103.056C451.045 103.376 450.885 103.845 450.885 104.464V106.736C450.885 107.344 451.045 107.813 451.365 108.144C451.696 108.464 452.149 108.624 452.725 108.624ZM458.063 110V101.2H459.775V102.88H460.191L459.775 103.28C459.775 102.576 459.983 102.027 460.399 101.632C460.815 101.237 461.391 101.04 462.127 101.04C463.001 101.04 463.7 101.323 464.223 101.888C464.745 102.443 465.007 103.195 465.007 104.144V110H463.279V104.336C463.279 103.76 463.124 103.317 462.815 103.008C462.505 102.699 462.084 102.544 461.551 102.544C461.007 102.544 460.575 102.709 460.255 103.04C459.945 103.36 459.791 103.829 459.791 104.448V110H458.063ZM471.272 110C470.472 110 469.848 109.781 469.4 109.344C468.952 108.907 468.728 108.299 468.728 107.52V102.768H466.296V101.2H468.728V98.72H470.456V101.2H473.896V102.768H470.456V107.52C470.456 108.128 470.75 108.432 471.336 108.432H473.736V110H471.272ZM479.106 110.16C478.392 110.16 477.762 110.021 477.218 109.744C476.685 109.456 476.274 109.056 475.986 108.544C475.698 108.032 475.554 107.435 475.554 106.752V104.448C475.554 103.755 475.698 103.157 475.986 102.656C476.274 102.144 476.685 101.749 477.218 101.472C477.762 101.184 478.392 101.04 479.106 101.04C479.832 101.04 480.461 101.184 480.994 101.472C481.528 101.749 481.938 102.144 482.226 102.656C482.514 103.157 482.658 103.755 482.658 104.448V106.016H477.218V106.752C477.218 107.403 477.378 107.899 477.698 108.24C478.029 108.581 478.504 108.752 479.122 108.752C479.624 108.752 480.029 108.667 480.338 108.496C480.648 108.315 480.84 108.053 480.914 107.712H482.626C482.498 108.459 482.114 109.056 481.474 109.504C480.834 109.941 480.045 110.16 479.106 110.16ZM480.994 104.976V104.432C480.994 103.792 480.834 103.296 480.514 102.944C480.194 102.592 479.725 102.416 479.106 102.416C478.498 102.416 478.029 102.592 477.698 102.944C477.378 103.296 477.218 103.797 477.218 104.448V104.848L481.122 104.832L480.994 104.976ZM483.788 110L486.876 105.456L483.98 101.2H485.964L487.516 103.632C487.591 103.76 487.665 103.899 487.74 104.048C487.815 104.187 487.873 104.304 487.916 104.4C487.948 104.304 488.001 104.187 488.076 104.048C488.151 103.899 488.225 103.76 488.3 103.632L489.852 101.2H491.836L488.94 105.472L492.012 110H490.028L488.316 107.36C488.241 107.232 488.167 107.088 488.092 106.928C488.017 106.768 487.959 106.64 487.916 106.544C487.873 106.64 487.809 106.768 487.724 106.928C487.649 107.088 487.569 107.232 487.484 107.36L485.756 110H483.788ZM497.654 110C496.854 110 496.23 109.781 495.782 109.344C495.334 108.907 495.11 108.299 495.11 107.52V102.768H492.678V101.2H495.11V98.72H496.838V101.2H500.278V102.768H496.838V107.52C496.838 108.128 497.131 108.432 497.718 108.432H500.118V110H497.654ZM505.472 110.16C504.416 110.16 503.573 109.856 502.944 109.248C502.314 108.629 502 107.792 502 106.736V101.2H503.728V106.736C503.728 107.344 503.882 107.819 504.192 108.16C504.501 108.491 504.928 108.656 505.472 108.656C506.026 108.656 506.458 108.491 506.768 108.16C507.088 107.819 507.248 107.344 507.248 106.736V101.2H508.976V106.736C508.976 107.792 508.656 108.629 508.016 109.248C507.386 109.856 506.538 110.16 505.472 110.16ZM513.401 110.16C512.484 110.16 511.759 109.925 511.225 109.456C510.703 108.976 510.441 108.325 510.441 107.504C510.441 106.672 510.719 106.021 511.273 105.552C511.839 105.072 512.612 104.832 513.593 104.832H516.041V104.016C516.041 103.536 515.892 103.163 515.593 102.896C515.295 102.629 514.873 102.496 514.329 102.496C513.849 102.496 513.449 102.603 513.129 102.816C512.809 103.019 512.623 103.291 512.569 103.632H510.873C510.969 102.843 511.332 102.213 511.961 101.744C512.601 101.275 513.407 101.04 514.377 101.04C515.423 101.04 516.249 101.307 516.857 101.84C517.465 102.363 517.769 103.077 517.769 103.984V110H516.089V108.384H515.801L516.089 108.064C516.089 108.704 515.844 109.216 515.353 109.6C514.863 109.973 514.212 110.16 513.401 110.16ZM513.913 108.832C514.532 108.832 515.039 108.677 515.433 108.368C515.839 108.048 516.041 107.643 516.041 107.152V106H513.625C513.177 106 512.82 106.123 512.553 106.368C512.297 106.613 512.169 106.949 512.169 107.376C512.169 107.824 512.324 108.181 512.633 108.448C512.943 108.704 513.369 108.832 513.913 108.832ZM524.339 110C523.795 110 523.32 109.893 522.915 109.68C522.51 109.456 522.19 109.141 521.955 108.736C521.731 108.331 521.619 107.861 521.619 107.328V99.888H518.739V98.32H523.347V107.328C523.347 107.669 523.443 107.941 523.635 108.144C523.827 108.336 524.088 108.432 524.419 108.432H527.139V110H524.339ZM444.216 128L447.192 116.32H449.464L452.44 128H450.696L449.992 125.04H446.68L445.976 128H444.216ZM447 123.616H449.656L448.856 120.24C448.717 119.643 448.6 119.125 448.504 118.688C448.419 118.24 448.36 117.936 448.328 117.776C448.296 117.936 448.237 118.24 448.152 118.688C448.067 119.125 447.949 119.637 447.8 120.224L447 123.616ZM454.13 128L452.77 119.2H454.226L455.042 125.008C455.085 125.275 455.122 125.573 455.154 125.904C455.197 126.224 455.229 126.491 455.25 126.704C455.271 126.491 455.303 126.224 455.346 125.904C455.399 125.584 455.447 125.285 455.49 125.008L456.402 119.2H457.858L458.754 125.008C458.797 125.285 458.839 125.589 458.882 125.92C458.935 126.24 458.973 126.507 458.994 126.72C459.015 126.496 459.047 126.224 459.09 125.904C459.143 125.573 459.191 125.275 459.234 125.008L460.066 119.2H461.474L460.066 128H458.242L457.378 122.256C457.335 121.957 457.287 121.643 457.234 121.312C457.181 120.971 457.143 120.699 457.122 120.496C457.09 120.699 457.047 120.971 456.994 121.312C456.951 121.643 456.909 121.957 456.866 122.256L455.97 128H454.13ZM465.036 128.16C464.118 128.16 463.393 127.925 462.86 127.456C462.337 126.976 462.076 126.325 462.076 125.504C462.076 124.672 462.353 124.021 462.908 123.552C463.473 123.072 464.246 122.832 465.228 122.832H467.676V122.016C467.676 121.536 467.526 121.163 467.228 120.896C466.929 120.629 466.508 120.496 465.964 120.496C465.484 120.496 465.084 120.603 464.764 120.816C464.444 121.019 464.257 121.291 464.204 121.632H462.508C462.604 120.843 462.966 120.213 463.596 119.744C464.236 119.275 465.041 119.04 466.012 119.04C467.057 119.04 467.884 119.307 468.492 119.84C469.1 120.363 469.404 121.077 469.404 121.984V128H467.724V126.384H467.436L467.724 126.064C467.724 126.704 467.478 127.216 466.988 127.6C466.497 127.973 465.846 128.16 465.036 128.16ZM465.548 126.832C466.166 126.832 466.673 126.677 467.068 126.368C467.473 126.048 467.676 125.643 467.676 125.152V124H465.26C464.812 124 464.454 124.123 464.188 124.368C463.932 124.613 463.804 124.949 463.804 125.376C463.804 125.824 463.958 126.181 464.268 126.448C464.577 126.704 465.004 126.832 465.548 126.832ZM471.541 128V119.2H473.205V120.88H473.621L473.093 121.92C473.093 120.971 473.301 120.256 473.717 119.776C474.133 119.285 474.752 119.04 475.573 119.04C476.512 119.04 477.253 119.333 477.797 119.92C478.352 120.496 478.629 121.291 478.629 122.304V122.896H476.853V122.448C476.853 121.819 476.693 121.339 476.373 121.008C476.064 120.667 475.627 120.496 475.061 120.496C474.496 120.496 474.053 120.667 473.733 121.008C473.424 121.349 473.269 121.829 473.269 122.448V128H471.541ZM483.503 128.16C482.788 128.16 482.159 128.021 481.615 127.744C481.082 127.456 480.671 127.056 480.383 126.544C480.095 126.032 479.951 125.435 479.951 124.752V122.448C479.951 121.755 480.095 121.157 480.383 120.656C480.671 120.144 481.082 119.749 481.615 119.472C482.159 119.184 482.788 119.04 483.503 119.04C484.228 119.04 484.858 119.184 485.391 119.472C485.924 119.749 486.335 120.144 486.623 120.656C486.911 121.157 487.055 121.755 487.055 122.448V124.016H481.615V124.752C481.615 125.403 481.775 125.899 482.095 126.24C482.426 126.581 482.9 126.752 483.519 126.752C484.02 126.752 484.426 126.667 484.735 126.496C485.044 126.315 485.236 126.053 485.311 125.712H487.023C486.895 126.459 486.511 127.056 485.871 127.504C485.231 127.941 484.442 128.16 483.503 128.16ZM485.391 122.976V122.432C485.391 121.792 485.231 121.296 484.911 120.944C484.591 120.592 484.122 120.416 483.503 120.416C482.895 120.416 482.426 120.592 482.095 120.944C481.775 121.296 481.615 121.797 481.615 122.448V122.848L485.519 122.832L485.391 122.976ZM488.841 128V119.2H490.553V120.88H490.969L490.553 121.28C490.553 120.576 490.761 120.027 491.177 119.632C491.593 119.237 492.169 119.04 492.905 119.04C493.78 119.04 494.478 119.323 495.001 119.888C495.524 120.443 495.785 121.195 495.785 122.144V128H494.057V122.336C494.057 121.76 493.902 121.317 493.593 121.008C493.284 120.699 492.862 120.544 492.329 120.544C491.785 120.544 491.353 120.709 491.033 121.04C490.724 121.36 490.569 121.829 490.569 122.448V128H488.841ZM501.091 128.16C500.376 128.16 499.747 128.021 499.203 127.744C498.669 127.456 498.259 127.056 497.971 126.544C497.683 126.032 497.539 125.435 497.539 124.752V122.448C497.539 121.755 497.683 121.157 497.971 120.656C498.259 120.144 498.669 119.749 499.203 119.472C499.747 119.184 500.376 119.04 501.091 119.04C501.816 119.04 502.445 119.184 502.979 119.472C503.512 119.749 503.923 120.144 504.211 120.656C504.499 121.157 504.643 121.755 504.643 122.448V124.016H499.203V124.752C499.203 125.403 499.363 125.899 499.683 126.24C500.013 126.581 500.488 126.752 501.107 126.752C501.608 126.752 502.013 126.667 502.323 126.496C502.632 126.315 502.824 126.053 502.899 125.712H504.611C504.483 126.459 504.099 127.056 503.459 127.504C502.819 127.941 502.029 128.16 501.091 128.16ZM502.979 122.976V122.432C502.979 121.792 502.819 121.296 502.499 120.944C502.179 120.592 501.709 120.416 501.091 120.416C500.483 120.416 500.013 120.592 499.683 120.944C499.363 121.296 499.203 121.797 499.203 122.448V122.848L503.107 122.832L502.979 122.976ZM509.58 128.144C508.951 128.144 508.396 128.043 507.916 127.84C507.447 127.637 507.074 127.36 506.796 127.008C506.53 126.645 506.375 126.219 506.332 125.728H508.06C508.103 126.016 508.258 126.251 508.524 126.432C508.791 126.603 509.143 126.688 509.58 126.688H510.268C510.791 126.688 511.186 126.581 511.452 126.368C511.719 126.155 511.852 125.872 511.852 125.52C511.852 125.179 511.73 124.912 511.484 124.72C511.25 124.517 510.898 124.384 510.428 124.32L509.292 124.144C508.354 123.995 507.66 123.728 507.212 123.344C506.775 122.949 506.556 122.368 506.556 121.6C506.556 120.789 506.818 120.165 507.34 119.728C507.874 119.28 508.658 119.056 509.692 119.056H510.3C511.218 119.056 511.948 119.269 512.492 119.696C513.047 120.112 513.362 120.672 513.436 121.376H511.708C511.666 121.12 511.522 120.912 511.276 120.752C511.042 120.592 510.716 120.512 510.3 120.512H509.692C509.191 120.512 508.823 120.608 508.588 120.8C508.364 120.981 508.252 121.253 508.252 121.616C508.252 121.936 508.354 122.176 508.556 122.336C508.759 122.496 509.074 122.608 509.5 122.672L510.668 122.864C511.66 123.003 512.386 123.28 512.844 123.696C513.314 124.101 513.548 124.693 513.548 125.472C513.548 126.315 513.271 126.971 512.716 127.44C512.172 127.909 511.356 128.144 510.268 128.144H509.58ZM518.374 128.144C517.745 128.144 517.19 128.043 516.71 127.84C516.241 127.637 515.867 127.36 515.59 127.008C515.323 126.645 515.169 126.219 515.126 125.728H516.854C516.897 126.016 517.051 126.251 517.318 126.432C517.585 126.603 517.937 126.688 518.374 126.688H519.062C519.585 126.688 519.979 126.581 520.246 126.368C520.513 126.155 520.646 125.872 520.646 125.52C520.646 125.179 520.523 124.912 520.278 124.72C520.043 124.517 519.691 124.384 519.222 124.32L518.086 124.144C517.147 123.995 516.454 123.728 516.006 123.344C515.569 122.949 515.35 122.368 515.35 121.6C515.35 120.789 515.611 120.165 516.134 119.728C516.667 119.28 517.451 119.056 518.486 119.056H519.094C520.011 119.056 520.742 119.269 521.286 119.696C521.841 120.112 522.155 120.672 522.23 121.376H520.502C520.459 121.12 520.315 120.912 520.07 120.752C519.835 120.592 519.51 120.512 519.094 120.512H518.486C517.985 120.512 517.617 120.608 517.382 120.8C517.158 120.981 517.046 121.253 517.046 121.616C517.046 121.936 517.147 122.176 517.35 122.336C517.553 122.496 517.867 122.608 518.294 122.672L519.462 122.864C520.454 123.003 521.179 123.28 521.638 123.696C522.107 124.101 522.342 124.693 522.342 125.472C522.342 126.315 522.065 126.971 521.51 127.44C520.966 127.909 520.15 128.144 519.062 128.144H518.374Z" fill="black" style="fill:black;fill-opacity:1;"/>
<path d="M26.1872 119V107.32H28.3152L29.4832 111.064C29.6006 111.416 29.7019 111.757 29.7872 112.088C29.8726 112.408 29.9312 112.648 29.9632 112.808C30.0059 112.648 30.0646 112.408 30.1392 112.088C30.2246 111.757 30.3206 111.416 30.4272 111.064L31.5472 107.32H33.6752V119H32.0432V115.064C32.0432 114.563 32.0539 114.008 32.0752 113.4C32.1072 112.781 32.1499 112.163 32.2032 111.544C32.2566 110.915 32.3099 110.317 32.3632 109.752C32.4166 109.176 32.4646 108.675 32.5072 108.248L30.7792 113.928H29.1152L27.3552 108.248C27.4086 108.664 27.4619 109.149 27.5152 109.704C27.5686 110.248 27.6166 110.829 27.6592 111.448C27.7019 112.067 27.7392 112.691 27.7712 113.32C27.8032 113.939 27.8192 114.52 27.8192 115.064V119H26.1872ZM38.709 119.16C37.653 119.16 36.8103 118.856 36.181 118.248C35.5517 117.629 35.237 116.792 35.237 115.736V110.2H36.965V115.736C36.965 116.344 37.1197 116.819 37.429 117.16C37.7383 117.491 38.165 117.656 38.709 117.656C39.2637 117.656 39.6957 117.491 40.005 117.16C40.325 116.819 40.485 116.344 40.485 115.736V110.2H42.213V115.736C42.213 116.792 41.893 117.629 41.253 118.248C40.6237 118.856 39.7757 119.16 38.709 119.16ZM48.7827 119C48.2387 119 47.7641 118.893 47.3587 118.68C46.9534 118.456 46.6334 118.141 46.3987 117.736C46.1747 117.331 46.0627 116.861 46.0627 116.328V108.888H43.1827V107.32H47.7907V116.328C47.7907 116.669 47.8867 116.941 48.0787 117.144C48.2707 117.336 48.5321 117.432 48.8627 117.432H51.5827V119H48.7827ZM57.2725 119C56.4725 119 55.8485 118.781 55.4005 118.344C54.9525 117.907 54.7285 117.299 54.7285 116.52V111.768H52.2965V110.2H54.7285V107.72H56.4565V110.2H59.8965V111.768H56.4565V116.52C56.4565 117.128 56.7498 117.432 57.3365 117.432H59.7365V119H57.2725ZM61.6022 119V117.432H64.6902V111.768H62.0022V110.2H66.3702V117.432H69.2022V119H61.6022ZM65.3622 108.68C64.9889 108.68 64.6902 108.584 64.4662 108.392C64.2422 108.189 64.1302 107.923 64.1302 107.592C64.1302 107.251 64.2422 106.984 64.4662 106.792C64.6902 106.589 64.9889 106.488 65.3622 106.488C65.7356 106.488 66.0342 106.589 66.2582 106.792C66.4822 106.984 66.5942 107.251 66.5942 107.592C66.5942 107.923 66.4822 108.189 66.2582 108.392C66.0342 108.584 65.7356 108.68 65.3622 108.68ZM71.34 114.504V112.936H76.46V114.504H71.34ZM81.8297 119V108.904H78.7097V107.304H86.6777V108.904H83.5577V119H81.8297ZM91.4715 119.16C90.4155 119.16 89.5728 118.856 88.9435 118.248C88.3142 117.629 87.9995 116.792 87.9995 115.736V110.2H89.7275V115.736C89.7275 116.344 89.8822 116.819 90.1915 117.16C90.5008 117.491 90.9275 117.656 91.4715 117.656C92.0262 117.656 92.4582 117.491 92.7675 117.16C93.0875 116.819 93.2475 116.344 93.2475 115.736V110.2H94.9755V115.736C94.9755 116.792 94.6555 117.629 94.0155 118.248C93.3862 118.856 92.5382 119.16 91.4715 119.16ZM97.1132 119V110.2H98.7772V111.88H99.1932L98.6652 112.92C98.6652 111.971 98.8732 111.256 99.2892 110.776C99.7052 110.285 100.324 110.04 101.145 110.04C102.084 110.04 102.825 110.333 103.369 110.92C103.924 111.496 104.201 112.291 104.201 113.304V113.896H102.425V113.448C102.425 112.819 102.265 112.339 101.945 112.008C101.636 111.667 101.199 111.496 100.633 111.496C100.068 111.496 99.6252 111.667 99.3052 112.008C98.9959 112.349 98.8412 112.829 98.8412 113.448V119H97.1132ZM105.619 119V110.2H107.331V111.88H107.747L107.331 112.28C107.331 111.576 107.539 111.027 107.955 110.632C108.371 110.237 108.947 110.04 109.683 110.04C110.558 110.04 111.256 110.323 111.779 110.888C112.302 111.443 112.563 112.195 112.563 113.144V119H110.835V113.336C110.835 112.76 110.68 112.317 110.371 112.008C110.062 111.699 109.64 111.544 109.107 111.544C108.563 111.544 108.131 111.709 107.811 112.04C107.502 112.36 107.347 112.829 107.347 113.448V119H105.619Z" fill="black" style="fill:black;fill-opacity:1;"/>
<path d="M261.192 38V23.4H265.772C266.692 23.4 267.492 23.58 268.172 23.94C268.852 24.2867 269.378 24.78 269.752 25.42C270.138 26.06 270.332 26.8133 270.332 27.68C270.332 28.6533 270.078 29.5 269.572 30.22C269.078 30.9267 268.405 31.4267 267.552 31.72L270.532 38H268.072L265.412 32H263.352V38H261.192ZM263.352 30.1H265.772C266.492 30.1 267.065 29.8867 267.492 29.46C267.918 29.02 268.132 28.44 268.132 27.72C268.132 26.9733 267.918 26.3867 267.492 25.96C267.065 25.5333 266.492 25.32 265.772 25.32H263.352V30.1ZM271.364 38L275.084 23.4H277.924L281.644 38H279.464L278.584 34.3H274.444L273.564 38H271.364ZM274.844 32.52H278.164L277.164 28.3C276.991 27.5533 276.844 26.9067 276.724 26.36C276.617 25.8 276.544 25.42 276.504 25.22C276.464 25.42 276.391 25.8 276.284 26.36C276.177 26.9067 276.031 27.5467 275.844 28.28L274.844 32.52ZM287.576 38.2C286.669 38.2 285.876 38.0333 285.196 37.7C284.529 37.3533 284.009 36.86 283.636 36.22C283.276 35.5667 283.096 34.8067 283.096 33.94V27.46C283.096 26.58 283.276 25.82 283.636 25.18C284.009 24.54 284.529 24.0533 285.196 23.72C285.876 23.3733 286.669 23.2 287.576 23.2C288.483 23.2 289.269 23.3733 289.936 23.72C290.603 24.0667 291.116 24.56 291.476 25.2C291.849 25.8267 292.036 26.58 292.036 27.46H289.876C289.876 26.7 289.676 26.12 289.276 25.72C288.876 25.32 288.309 25.12 287.576 25.12C286.843 25.12 286.269 25.32 285.856 25.72C285.456 26.12 285.256 26.6933 285.256 27.44V33.94C285.256 34.6867 285.456 35.2667 285.856 35.68C286.269 36.0933 286.843 36.3 287.576 36.3C288.309 36.3 288.876 36.0933 289.276 35.68C289.676 35.2667 289.876 34.6867 289.876 33.94V32.3H287.156V30.4H292.036V33.94C292.036 34.8067 291.849 35.56 291.476 36.2C291.116 36.84 290.603 37.3333 289.936 37.68C289.269 38.0267 288.483 38.2 287.576 38.2ZM232.891 60L236.611 45.4H239.451L243.171 60H240.991L240.111 56.3H235.971L235.091 60H232.891ZM236.371 54.52H239.691L238.691 50.3C238.518 49.5533 238.371 48.9067 238.251 48.36C238.145 47.8 238.071 47.42 238.031 47.22C237.991 47.42 237.918 47.8 237.811 48.36C237.705 48.9067 237.558 49.5467 237.371 50.28L236.371 54.52ZM249.103 60.2C248.197 60.2 247.397 60.0333 246.703 59.7C246.023 59.3533 245.497 58.86 245.123 58.22C244.763 57.5667 244.583 56.8067 244.583 55.94V53.06C244.583 52.18 244.763 51.42 245.123 50.78C245.497 50.14 246.023 49.6533 246.703 49.32C247.397 48.9733 248.197 48.8 249.103 48.8C250.423 48.8 251.483 49.1467 252.283 49.84C253.083 50.5333 253.503 51.48 253.543 52.68H251.383C251.343 52.0533 251.123 51.5667 250.723 51.22C250.323 50.8733 249.783 50.7 249.103 50.7C248.37 50.7 247.79 50.9067 247.363 51.32C246.937 51.72 246.723 52.2933 246.723 53.04V55.94C246.723 56.6867 246.937 57.2667 247.363 57.68C247.79 58.0933 248.37 58.3 249.103 58.3C249.783 58.3 250.323 58.1267 250.723 57.78C251.123 57.4333 251.343 56.9467 251.383 56.32H253.543C253.503 57.52 253.083 58.4667 252.283 59.16C251.483 59.8533 250.423 60.2 249.103 60.2ZM260.096 60.2C259.189 60.2 258.389 60.0333 257.696 59.7C257.016 59.3533 256.489 58.86 256.116 58.22C255.756 57.5667 255.576 56.8067 255.576 55.94V53.06C255.576 52.18 255.756 51.42 256.116 50.78C256.489 50.14 257.016 49.6533 257.696 49.32C258.389 48.9733 259.189 48.8 260.096 48.8C261.416 48.8 262.476 49.1467 263.276 49.84C264.076 50.5333 264.496 51.48 264.536 52.68H262.376C262.336 52.0533 262.116 51.5667 261.716 51.22C261.316 50.8733 260.776 50.7 260.096 50.7C259.362 50.7 258.782 50.9067 258.356 51.32C257.929 51.72 257.716 52.2933 257.716 53.04V55.94C257.716 56.6867 257.929 57.2667 258.356 57.68C258.782 58.0933 259.362 58.3 260.096 58.3C260.776 58.3 261.316 58.1267 261.716 57.78C262.116 57.4333 262.336 56.9467 262.376 56.32H264.536C264.496 57.52 264.076 58.4667 263.276 59.16C262.476 59.8533 261.416 60.2 260.096 60.2ZM270.988 60.2C269.668 60.2 268.614 59.82 267.828 59.06C267.041 58.2867 266.648 57.24 266.648 55.92V49H268.808V55.92C268.808 56.68 269.001 57.2733 269.388 57.7C269.774 58.1133 270.308 58.32 270.988 58.32C271.681 58.32 272.221 58.1133 272.608 57.7C273.008 57.2733 273.208 56.68 273.208 55.92V49H275.368V55.92C275.368 57.24 274.968 58.2867 274.168 59.06C273.381 59.82 272.321 60.2 270.988 60.2ZM278.04 60V49H280.12V51.1H280.64L279.98 52.4C279.98 51.2133 280.24 50.32 280.76 49.72C281.28 49.1067 282.053 48.8 283.08 48.8C284.253 48.8 285.18 49.1667 285.86 49.9C286.553 50.62 286.9 51.6133 286.9 52.88V53.62H284.68V53.06C284.68 52.2733 284.48 51.6733 284.08 51.26C283.693 50.8333 283.147 50.62 282.44 50.62C281.733 50.62 281.18 50.8333 280.78 51.26C280.393 51.6867 280.2 52.2867 280.2 53.06V60H278.04ZM291.892 60.2C290.746 60.2 289.839 59.9067 289.172 59.32C288.519 58.72 288.192 57.9067 288.192 56.88C288.192 55.84 288.539 55.0267 289.232 54.44C289.939 53.84 290.906 53.54 292.132 53.54H295.192V52.52C295.192 51.92 295.006 51.4533 294.632 51.12C294.259 50.7867 293.732 50.62 293.052 50.62C292.452 50.62 291.952 50.7533 291.552 51.02C291.152 51.2733 290.919 51.6133 290.852 52.04H288.732C288.852 51.0533 289.306 50.2667 290.092 49.68C290.892 49.0933 291.899 48.8 293.112 48.8C294.419 48.8 295.452 49.1333 296.212 49.8C296.972 50.4533 297.352 51.3467 297.352 52.48V60H295.252V57.98H294.892L295.252 57.58C295.252 58.38 294.946 59.02 294.332 59.5C293.719 59.9667 292.906 60.2 291.892 60.2ZM292.532 58.54C293.306 58.54 293.939 58.3467 294.432 57.96C294.939 57.56 295.192 57.0533 295.192 56.44V55H292.172C291.612 55 291.166 55.1533 290.832 55.46C290.512 55.7667 290.352 56.1867 290.352 56.72C290.352 57.28 290.546 57.7267 290.932 58.06C291.319 58.38 291.852 58.54 292.532 58.54ZM304.064 60.2C303.158 60.2 302.358 60.0333 301.664 59.7C300.984 59.3533 300.458 58.86 300.084 58.22C299.724 57.5667 299.544 56.8067 299.544 55.94V53.06C299.544 52.18 299.724 51.42 300.084 50.78C300.458 50.14 300.984 49.6533 301.664 49.32C302.358 48.9733 303.158 48.8 304.064 48.8C305.384 48.8 306.444 49.1467 307.244 49.84C308.044 50.5333 308.464 51.48 308.504 52.68H306.344C306.304 52.0533 306.084 51.5667 305.684 51.22C305.284 50.8733 304.744 50.7 304.064 50.7C303.331 50.7 302.751 50.9067 302.324 51.32C301.898 51.72 301.684 52.2933 301.684 53.04V55.94C301.684 56.6867 301.898 57.2667 302.324 57.68C302.751 58.0933 303.331 58.3 304.064 58.3C304.744 58.3 305.284 58.1267 305.684 57.78C306.084 57.4333 306.304 56.9467 306.344 56.32H308.504C308.464 57.52 308.044 58.4667 307.244 59.16C306.444 59.8533 305.384 60.2 304.064 60.2ZM312.417 63.6L313.997 59.36L309.897 49H312.277L314.577 55.2C314.67 55.4667 314.763 55.7867 314.857 56.16C314.95 56.5333 315.03 56.84 315.097 57.08C315.15 56.84 315.223 56.5333 315.317 56.16C315.41 55.7867 315.503 55.4667 315.597 55.2L317.757 49H320.057L314.697 63.6H312.417Z" fill="black" style="fill:black;fill-opacity:1;"/>
<path d="M162 36.5L147.75 44.7272L147.75 28.2728L162 36.5Z" fill="#ABB2FA" style="fill:#ABB2FA;fill:color(display-p3 0.6706 0.6990 0.9799);fill-opacity:1;"/>
</svg>
