<svg width="577" height="417" viewBox="0 0 577 417" fill="none" xmlns="http://www.w3.org/2000/svg">
<rect x="48.544" y="136.703" width="263.604" height="58.318" stroke="#ABB2FA" style="stroke:#ABB2FA;stroke:color(display-p3 0.6706 0.6990 0.9799);stroke-opacity:1;" stroke-width="3.4807"/>
<rect x="374.586" y="1.74035" width="30.6152" height="30.6152" stroke="#ABB2FA" style="stroke:#ABB2FA;stroke:color(display-p3 0.6706 0.6990 0.9799);stroke-opacity:1;" stroke-width="3.4807"/>
<rect x="236.782" y="251.066" width="163.447" height="163.447" stroke="#ABB2FA" style="stroke:#ABB2FA;stroke:color(display-p3 0.6706 0.6990 0.9799);stroke-opacity:1;" stroke-width="3.4807"/>
<path d="M56.1859 130.295V115.05H58.4205V117.243H58.9008L58.4205 117.765C58.4205 116.86 58.6989 116.15 59.2558 115.635C59.8267 115.106 60.5855 114.841 61.5322 114.841C62.6878 114.841 63.6067 115.231 64.2889 116.011C64.9851 116.776 65.3331 117.828 65.3331 119.164V122.401C65.3331 123.292 65.173 124.065 64.8528 124.719C64.5465 125.36 64.1079 125.861 63.5371 126.223C62.9802 126.571 62.3119 126.745 61.5322 126.745C60.5994 126.745 59.8476 126.488 59.2767 125.972C58.7059 125.443 58.4205 124.726 58.4205 123.821L58.9008 124.343H58.3787L58.4414 127.017V130.295H56.1859ZM60.7595 124.782C61.4974 124.782 62.0682 124.573 62.472 124.155C62.8897 123.724 63.0985 123.104 63.0985 122.297V119.289C63.0985 118.482 62.8897 117.869 62.472 117.452C62.0682 117.02 61.4974 116.804 60.7595 116.804C60.0494 116.804 59.4856 117.027 59.0679 117.473C58.6502 117.904 58.4414 118.51 58.4414 119.289V122.297C58.4414 123.076 58.6502 123.689 59.0679 124.135C59.4856 124.566 60.0494 124.782 60.7595 124.782ZM73.8248 126.536C73.1148 126.536 72.4952 126.397 71.9662 126.119C71.4371 125.826 71.0194 125.415 70.7131 124.886C70.4207 124.357 70.2745 123.745 70.2745 123.049V113.337H66.5154V111.291H72.53V123.049C72.53 123.494 72.6553 123.849 72.9059 124.114C73.1566 124.364 73.4977 124.49 73.9293 124.49H77.4796V126.536H73.8248ZM82.5045 126.745C81.3072 126.745 80.3604 126.439 79.6643 125.826C78.982 125.2 78.6409 124.35 78.6409 123.278C78.6409 122.192 79.0029 121.343 79.7269 120.73C80.4648 120.104 81.4742 119.791 82.7551 119.791H85.9504V118.726C85.9504 118.099 85.7555 117.612 85.3656 117.264C84.9758 116.916 84.4259 116.742 83.7158 116.742C83.0893 116.742 82.5672 116.881 82.1495 117.159C81.7318 117.424 81.4881 117.779 81.4185 118.224H79.2048C79.3301 117.194 79.8035 116.373 80.6249 115.76C81.4603 115.147 82.5115 114.841 83.7784 114.841C85.1429 114.841 86.2219 115.189 87.0155 115.885C87.8091 116.568 88.2059 117.5 88.2059 118.684V126.536H86.0131V124.427H85.6371L86.0131 124.009C86.0131 124.845 85.6928 125.513 85.0524 126.014C84.4119 126.501 83.5626 126.745 82.5045 126.745ZM83.1728 125.012C83.9803 125.012 84.6417 124.81 85.1568 124.406C85.6859 123.988 85.9504 123.459 85.9504 122.819V121.315H82.7969C82.2121 121.315 81.7457 121.475 81.3976 121.796C81.0635 122.116 80.8964 122.554 80.8964 123.111C80.8964 123.696 81.0983 124.162 81.5021 124.51C81.9058 124.845 82.4627 125.012 83.1728 125.012ZM90.6203 126.536V115.05H92.8549V117.243H93.3979L92.8549 117.765C92.8549 116.846 93.1264 116.129 93.6694 115.614C94.2124 115.099 94.9642 114.841 95.9249 114.841C97.0666 114.841 97.9785 115.21 98.6607 115.948C99.3429 116.672 99.684 117.654 99.684 118.893V126.536H97.4286V119.143C97.4286 118.391 97.2267 117.814 96.8229 117.41C96.4192 117.006 95.8692 116.804 95.1731 116.804C94.463 116.804 93.8991 117.02 93.4814 117.452C93.0777 117.869 92.8758 118.482 92.8758 119.289V126.536H90.6203ZM106.609 126.724C105.663 126.724 104.841 126.543 104.145 126.181C103.449 125.819 102.913 125.304 102.537 124.636C102.161 123.968 101.973 123.181 101.973 122.276V119.31C101.973 118.391 102.161 117.605 102.537 116.95C102.913 116.282 103.449 115.767 104.145 115.405C104.841 115.043 105.663 114.862 106.609 114.862C107.556 114.862 108.378 115.043 109.074 115.405C109.77 115.767 110.306 116.282 110.682 116.95C111.058 117.605 111.246 118.391 111.246 119.31V122.276C111.246 123.181 111.058 123.968 110.682 124.636C110.306 125.304 109.77 125.819 109.074 126.181C108.378 126.543 107.556 126.724 106.609 126.724ZM106.609 124.74C107.375 124.74 107.967 124.531 108.385 124.114C108.802 123.682 109.011 123.069 109.011 122.276V119.31C109.011 118.503 108.802 117.89 108.385 117.473C107.967 117.055 107.375 116.846 106.609 116.846C105.858 116.846 105.266 117.055 104.834 117.473C104.417 117.89 104.208 118.503 104.208 119.31V122.276C104.208 123.069 104.417 123.682 104.834 124.114C105.266 124.531 105.858 124.74 106.609 124.74Z" fill="black" style="fill:black;fill-opacity:1;"/>
<path d="M73.4106 176.241C72.204 176.241 71.1551 176.009 70.2641 175.545C69.3916 175.081 68.714 174.413 68.2314 173.54C67.7487 172.668 67.5074 171.647 67.5074 170.477V161.121C67.5074 159.933 67.7487 158.912 68.2314 158.058C68.714 157.186 69.3916 156.517 70.2641 156.053C71.1551 155.589 72.204 155.357 73.4106 155.357C74.5987 155.357 75.629 155.598 76.5015 156.081C77.3926 156.545 78.0794 157.213 78.5621 158.086C79.0447 158.958 79.2861 159.998 79.2861 161.205H77.0863C77.0863 159.979 76.7614 159.033 76.1117 158.364C75.4619 157.678 74.5616 157.334 73.4106 157.334C72.2597 157.334 71.3501 157.668 70.6818 158.337C70.032 158.986 69.7072 159.914 69.7072 161.121V170.477C69.7072 171.665 70.032 172.593 70.6818 173.262C71.3501 173.93 72.2597 174.264 73.4106 174.264C74.5616 174.264 75.4619 173.93 76.1117 173.262C76.7614 172.575 77.0863 171.619 77.0863 170.394H79.2861C79.2861 171.582 79.0447 172.621 78.5621 173.512C78.0794 174.385 77.3926 175.062 76.5015 175.545C75.629 176.009 74.5987 176.241 73.4106 176.241ZM88.5756 176.213C87.3875 176.213 86.3572 175.981 85.4847 175.517C84.6122 175.053 83.9347 174.385 83.452 173.512C82.9694 172.64 82.728 171.61 82.728 170.422V166.189C82.728 164.982 82.9694 163.952 83.452 163.098C83.9347 162.226 84.6122 161.557 85.4847 161.093C86.3572 160.629 87.3875 160.397 88.5756 160.397C89.7637 160.397 90.794 160.629 91.6665 161.093C92.539 161.557 93.2165 162.226 93.6992 163.098C94.1819 163.952 94.4232 164.973 94.4232 166.161V170.422C94.4232 171.61 94.1819 172.64 93.6992 173.512C93.2165 174.385 92.539 175.053 91.6665 175.517C90.794 175.981 89.7637 176.213 88.5756 176.213ZM88.5756 174.236C89.7266 174.236 90.6176 173.912 91.2488 173.262C91.8799 172.612 92.1955 171.665 92.1955 170.422V166.189C92.1955 164.945 91.8707 163.998 91.2209 163.349C90.5898 162.699 89.708 162.374 88.5756 162.374C87.4432 162.374 86.5522 162.699 85.9024 163.349C85.2713 163.998 84.9557 164.945 84.9557 166.189V170.422C84.9557 171.665 85.2713 172.612 85.9024 173.262C86.5522 173.912 87.4432 174.236 88.5756 174.236ZM98.2271 175.963V160.648H100.427V163.488H100.984L100.371 164.295C100.371 163.07 100.743 162.114 101.485 161.427C102.246 160.722 103.276 160.369 104.576 160.369C106.098 160.369 107.314 160.852 108.224 161.817C109.133 162.764 109.588 164.054 109.588 165.688V175.963H107.388V165.938C107.388 164.769 107.082 163.869 106.469 163.237C105.857 162.606 105.021 162.291 103.963 162.291C102.868 162.291 102.005 162.625 101.374 163.293C100.743 163.961 100.427 164.908 100.427 166.133V175.963H98.2271ZM117.096 175.963V164.184H112.585V162.179H117.096V159.423C117.096 158.253 117.458 157.334 118.182 156.666C118.924 155.979 119.936 155.636 121.217 155.636H125.644V157.64H121.217C120.604 157.64 120.131 157.798 119.797 158.114C119.481 158.411 119.323 158.847 119.323 159.423V162.179H125.644V164.184H119.323V175.963H117.096ZM128.585 175.963V173.958H134.043V162.653H129.281V160.648H136.27V173.958H141.45V175.963H128.585ZM134.906 157.835C134.33 157.835 133.866 157.687 133.514 157.39C133.179 157.093 133.012 156.684 133.012 156.165C133.012 155.626 133.179 155.199 133.514 154.884C133.866 154.568 134.33 154.41 134.906 154.41C135.481 154.41 135.936 154.568 136.27 154.884C136.623 155.199 136.799 155.626 136.799 156.165C136.799 156.666 136.623 157.074 136.27 157.39C135.936 157.687 135.481 157.835 134.906 157.835ZM144.641 175.963V160.648H146.813V163.488H147.342L146.562 165.242C146.581 163.683 146.961 162.486 147.704 161.65C148.447 160.796 149.514 160.369 150.906 160.369C152.521 160.369 153.802 160.88 154.749 161.901C155.714 162.903 156.197 164.258 156.197 165.966V166.885H153.941V166.133C153.941 164.89 153.635 163.933 153.022 163.265C152.41 162.578 151.537 162.235 150.405 162.235C149.31 162.235 148.447 162.578 147.815 163.265C147.184 163.952 146.869 164.908 146.869 166.133V175.963H144.641ZM158.664 175.963V160.648H160.613V162.541H161.031L160.725 163.154C160.725 162.3 160.948 161.622 161.393 161.121C161.857 160.62 162.488 160.369 163.287 160.369C164.122 160.369 164.772 160.666 165.236 161.26C165.718 161.854 165.969 162.69 165.988 163.766L165.403 162.541H166.322L165.932 163.154C165.932 162.3 166.164 161.622 166.628 161.121C167.092 160.62 167.723 160.369 168.522 160.369C169.468 160.369 170.202 160.722 170.721 161.427C171.26 162.133 171.529 163.07 171.529 164.24V175.963H169.468V164.24C169.468 163.572 169.32 163.052 169.023 162.68C168.726 162.291 168.308 162.096 167.77 162.096C167.231 162.096 166.804 162.291 166.489 162.68C166.173 163.052 166.016 163.572 166.016 164.24V175.963H164.178V164.24C164.178 163.553 164.02 163.024 163.704 162.653C163.407 162.281 162.99 162.096 162.451 162.096C161.913 162.096 161.495 162.281 161.198 162.653C160.901 163.024 160.743 163.553 160.725 164.24V175.963H158.664ZM194.508 176.241C192.893 176.241 191.621 175.833 190.693 175.016C189.765 174.181 189.301 173.058 189.301 171.647C189.301 170.254 189.755 169.159 190.665 168.361C191.575 167.544 192.8 167.136 194.341 167.136H199.214V165.521C199.214 164.5 198.917 163.711 198.322 163.154C197.728 162.597 196.884 162.318 195.789 162.318C194.823 162.318 194.016 162.532 193.366 162.959C192.735 163.386 192.373 163.961 192.28 164.685H190.052C190.238 163.367 190.851 162.318 191.89 161.539C192.948 160.759 194.266 160.369 195.844 160.369C197.552 160.369 198.907 160.833 199.91 161.762C200.912 162.671 201.413 163.906 201.413 165.465V175.963H199.241V172.983H198.879L199.297 172.538C199.297 173.67 198.861 174.571 197.988 175.239C197.116 175.907 195.956 176.241 194.508 176.241ZM195.037 174.459C196.262 174.459 197.264 174.153 198.044 173.54C198.824 172.928 199.214 172.129 199.214 171.146V168.834H194.368C193.496 168.834 192.8 169.076 192.28 169.558C191.76 170.041 191.5 170.7 191.5 171.535C191.5 172.426 191.816 173.141 192.447 173.679C193.078 174.199 193.941 174.459 195.037 174.459ZM211.093 176.241C209.905 176.241 208.865 176.009 207.974 175.545C207.083 175.081 206.387 174.422 205.886 173.568C205.403 172.696 205.162 171.665 205.162 170.477V166.133C205.162 164.945 205.403 163.924 205.886 163.07C206.387 162.198 207.083 161.529 207.974 161.065C208.865 160.601 209.905 160.369 211.093 160.369C212.838 160.369 214.239 160.843 215.297 161.789C216.356 162.736 216.903 164.026 216.94 165.66H214.741C214.703 164.602 214.36 163.785 213.71 163.21C213.079 162.634 212.207 162.346 211.093 162.346C209.96 162.346 209.06 162.68 208.392 163.349C207.723 163.998 207.389 164.927 207.389 166.133V170.477C207.389 171.665 207.723 172.593 208.392 173.262C209.06 173.93 209.96 174.264 211.093 174.264C212.207 174.264 213.079 173.976 213.71 173.401C214.36 172.807 214.703 171.99 214.741 170.951H216.94C216.903 172.584 216.356 173.874 215.297 174.821C214.239 175.768 212.838 176.241 211.093 176.241ZM227.984 175.963C226.703 175.963 225.71 175.629 225.005 174.96C224.299 174.273 223.947 173.308 223.947 172.064V162.653H219.603V160.648H223.947V156.332H226.174V160.648H232.328V162.653H226.174V172.064C226.174 173.327 226.777 173.958 227.984 173.958H232.05V175.963H227.984ZM235.714 175.963V173.958H241.172V162.653H236.41V160.648H243.4V173.958H248.579V175.963H235.714ZM242.035 157.835C241.46 157.835 240.996 157.687 240.643 157.39C240.309 157.093 240.142 156.684 240.142 156.165C240.142 155.626 240.309 155.199 240.643 154.884C240.996 154.568 241.46 154.41 242.035 154.41C242.611 154.41 243.066 154.568 243.4 154.884C243.752 155.199 243.929 155.626 243.929 156.165C243.929 156.666 243.752 157.074 243.4 157.39C243.066 157.687 242.611 157.835 242.035 157.835ZM256.922 176.213C255.734 176.213 254.703 175.981 253.831 175.517C252.958 175.053 252.281 174.385 251.798 173.512C251.316 172.64 251.074 171.61 251.074 170.422V166.189C251.074 164.982 251.316 163.952 251.798 163.098C252.281 162.226 252.958 161.557 253.831 161.093C254.703 160.629 255.734 160.397 256.922 160.397C258.11 160.397 259.14 160.629 260.013 161.093C260.885 161.557 261.563 162.226 262.045 163.098C262.528 163.952 262.769 164.973 262.769 166.161V170.422C262.769 171.61 262.528 172.64 262.045 173.512C261.563 174.385 260.885 175.053 260.013 175.517C259.14 175.981 258.11 176.213 256.922 176.213ZM256.922 174.236C258.073 174.236 258.964 173.912 259.595 173.262C260.226 172.612 260.542 171.665 260.542 170.422V166.189C260.542 164.945 260.217 163.998 259.567 163.349C258.936 162.699 258.054 162.374 256.922 162.374C255.789 162.374 254.898 162.699 254.249 163.349C253.617 163.998 253.302 164.945 253.302 166.189V170.422C253.302 171.665 253.617 172.612 254.249 173.262C254.898 173.912 255.789 174.236 256.922 174.236ZM266.573 175.963V160.648H268.773V163.488H269.33L268.717 164.295C268.717 163.07 269.089 162.114 269.831 161.427C270.592 160.722 271.623 160.369 272.922 160.369C274.444 160.369 275.66 160.852 276.57 161.817C277.48 162.764 277.934 164.054 277.934 165.688V175.963H275.735V165.938C275.735 164.769 275.428 163.869 274.816 163.237C274.203 162.606 273.368 162.291 272.31 162.291C271.214 162.291 270.351 162.625 269.72 163.293C269.089 163.961 268.773 164.908 268.773 166.133V175.963H266.573ZM285.275 170.254V165.326H286.667C287.892 165.326 288.867 164.982 289.591 164.295C290.315 163.59 290.677 162.662 290.677 161.511C290.677 160.36 290.315 159.441 289.591 158.754C288.867 158.049 287.883 157.696 286.639 157.696H283.186V155.636H286.639C287.901 155.636 288.997 155.877 289.925 156.359C290.872 156.842 291.605 157.52 292.125 158.392C292.645 159.265 292.904 160.304 292.904 161.511C292.904 162.588 292.672 163.553 292.208 164.407C291.763 165.242 291.132 165.901 290.315 166.384C289.498 166.867 288.551 167.136 287.475 167.191V170.254H285.275ZM286.027 176.102C285.544 176.102 285.145 175.954 284.829 175.656C284.532 175.341 284.384 174.942 284.384 174.459C284.384 173.995 284.532 173.614 284.829 173.317C285.145 173.002 285.544 172.844 286.027 172.844H286.667C287.187 172.844 287.586 172.993 287.864 173.29C288.161 173.587 288.31 173.976 288.31 174.459C288.31 174.923 288.152 175.313 287.837 175.629C287.539 175.944 287.15 176.102 286.667 176.102H286.027Z" fill="black" style="fill:black;fill-opacity:1;"/>
<path d="M341.147 72.295V70.2902H344.217V59.0545H341.147V57.0496H349.584V59.0545H346.514V70.2902H349.584V72.295H341.147ZM352.333 72.295V60.8087H354.567V63.0016H355.11L354.567 63.5237C354.567 62.6048 354.839 61.8878 355.382 61.3726C355.925 60.8575 356.677 60.5999 357.637 60.5999C358.779 60.5999 359.691 60.9689 360.373 61.7068C361.055 62.4307 361.396 63.4123 361.396 64.6514V72.295H359.141V64.902C359.141 64.1502 358.939 63.5724 358.535 63.1687C358.132 62.7649 357.582 62.563 356.885 62.563C356.175 62.563 355.612 62.7788 355.194 63.2104C354.79 63.6281 354.588 64.2407 354.588 65.0482V72.295H352.333ZM369.575 72.295C368.531 72.295 367.716 72.0096 367.131 71.4388C366.547 70.868 366.254 70.0744 366.254 69.058V62.8554H363.08V60.8087H366.254V57.5717H368.51V60.8087H373V62.8554H368.51V69.058C368.51 69.8516 368.893 70.2484 369.658 70.2484H372.791V72.295H369.575ZM379.8 72.5039C378.867 72.5039 378.046 72.3229 377.336 71.9609C376.64 71.585 376.103 71.0629 375.728 70.3946C375.352 69.7263 375.164 68.9466 375.164 68.0556V65.0482C375.164 64.1432 375.352 63.3636 375.728 62.7092C376.103 62.0409 376.64 61.5258 377.336 61.1638C378.046 60.7879 378.867 60.5999 379.8 60.5999C380.747 60.5999 381.568 60.7879 382.264 61.1638C382.96 61.5258 383.496 62.0409 383.872 62.7092C384.248 63.3636 384.436 64.1432 384.436 65.0482V67.0949H377.336V68.0556C377.336 68.9048 377.545 69.5523 377.962 69.9978C378.394 70.4433 379.013 70.6661 379.821 70.6661C380.475 70.6661 381.004 70.5547 381.408 70.3319C381.812 70.0952 382.062 69.7541 382.16 69.3086H384.395C384.227 70.2832 383.726 71.0629 382.891 71.6476C382.055 72.2185 381.025 72.5039 379.8 72.5039ZM382.264 65.7374V65.0273C382.264 64.192 382.055 63.5446 381.638 63.0851C381.22 62.6257 380.608 62.3959 379.8 62.3959C379.006 62.3959 378.394 62.6257 377.962 63.0851C377.545 63.5446 377.336 64.1989 377.336 65.0482V65.5703L382.431 65.5495L382.264 65.7374ZM386.767 72.295V60.8087H389.002V63.0016H389.545L389.002 63.5237C389.002 62.6048 389.273 61.8878 389.816 61.3726C390.359 60.8575 391.111 60.5999 392.072 60.5999C393.213 60.5999 394.125 60.9689 394.808 61.7068C395.49 62.4307 395.831 63.4123 395.831 64.6514V72.295H393.575V64.902C393.575 64.1502 393.374 63.5724 392.97 63.1687C392.566 62.7649 392.016 62.563 391.32 62.563C390.61 62.563 390.046 62.7788 389.628 63.2104C389.225 63.6281 389.023 64.2407 389.023 65.0482V72.295H386.767ZM404.009 72.295C402.965 72.295 402.151 72.0096 401.566 71.4388C400.981 70.868 400.689 70.0744 400.689 69.058V62.8554H397.514V60.8087H400.689V57.5717H402.944V60.8087H407.434V62.8554H402.944V69.058C402.944 69.8516 403.327 70.2484 404.093 70.2484H407.226V72.295H404.009ZM421.181 72.295V57.0496H425.441C426.444 57.0496 427.314 57.2445 428.052 57.6343C428.79 58.0103 429.36 58.5463 429.764 59.2424C430.182 59.9386 430.391 60.76 430.391 61.7068V67.617C430.391 68.5498 430.182 69.3713 429.764 70.0813C429.36 70.7914 428.79 71.3413 428.052 71.7312C427.314 72.1071 426.444 72.295 425.441 72.295H421.181ZM423.436 70.2484H425.441C426.276 70.2484 426.931 70.0187 427.404 69.5592C427.892 69.0858 428.135 68.4384 428.135 67.617V61.7068C428.135 60.8992 427.892 60.2658 427.404 59.8063C426.931 59.3329 426.276 59.0962 425.441 59.0962H423.436V70.2484ZM437.191 72.5039C436.258 72.5039 435.436 72.3229 434.726 71.9609C434.03 71.585 433.494 71.0629 433.118 70.3946C432.742 69.7263 432.554 68.9466 432.554 68.0556V65.0482C432.554 64.1432 432.742 63.3636 433.118 62.7092C433.494 62.0409 434.03 61.5258 434.726 61.1638C435.436 60.7879 436.258 60.5999 437.191 60.5999C438.137 60.5999 438.959 60.7879 439.655 61.1638C440.351 61.5258 440.887 62.0409 441.263 62.7092C441.639 63.3636 441.827 64.1432 441.827 65.0482V67.0949H434.726V68.0556C434.726 68.9048 434.935 69.5523 435.353 69.9978C435.785 70.4433 436.404 70.6661 437.212 70.6661C437.866 70.6661 438.395 70.5547 438.799 70.3319C439.203 70.0952 439.453 69.7541 439.551 69.3086H441.785C441.618 70.2832 441.117 71.0629 440.282 71.6476C439.446 72.2185 438.416 72.5039 437.191 72.5039ZM439.655 65.7374V65.0273C439.655 64.192 439.446 63.5446 439.029 63.0851C438.611 62.6257 437.998 62.3959 437.191 62.3959C436.397 62.3959 435.785 62.6257 435.353 63.0851C434.935 63.5446 434.726 64.1989 434.726 65.0482V65.5703L439.822 65.5495L439.655 65.7374ZM449.922 72.295C448.878 72.295 448.063 72.0096 447.478 71.4388C446.894 70.868 446.601 70.0744 446.601 69.058V62.8554H443.427V60.8087H446.601V57.5717H448.857V60.8087H453.347V62.8554H448.857V69.058C448.857 69.8516 449.24 70.2484 450.005 70.2484H453.138V72.295H449.922ZM460.147 72.5039C459.214 72.5039 458.393 72.3229 457.683 71.9609C456.987 71.585 456.451 71.0629 456.075 70.3946C455.699 69.7263 455.511 68.9466 455.511 68.0556V65.0482C455.511 64.1432 455.699 63.3636 456.075 62.7092C456.451 62.0409 456.987 61.5258 457.683 61.1638C458.393 60.7879 459.214 60.5999 460.147 60.5999C461.094 60.5999 461.915 60.7879 462.611 61.1638C463.308 61.5258 463.844 62.0409 464.219 62.7092C464.595 63.3636 464.783 64.1432 464.783 65.0482V67.0949H457.683V68.0556C457.683 68.9048 457.892 69.5523 458.309 69.9978C458.741 70.4433 459.36 70.6661 460.168 70.6661C460.822 70.6661 461.351 70.5547 461.755 70.3319C462.159 70.0952 462.409 69.7541 462.507 69.3086H464.742C464.574 70.2832 464.073 71.0629 463.238 71.6476C462.403 72.2185 461.372 72.5039 460.147 72.5039ZM462.611 65.7374V65.0273C462.611 64.192 462.403 63.5446 461.985 63.0851C461.567 62.6257 460.955 62.3959 460.147 62.3959C459.353 62.3959 458.741 62.6257 458.309 63.0851C457.892 63.5446 457.683 64.1989 457.683 65.0482V65.5703L462.778 65.5495L462.611 65.7374ZM471.709 72.5039C470.762 72.5039 469.927 72.3299 469.203 71.9818C468.493 71.6198 467.943 71.1046 467.553 70.4364C467.177 69.7541 466.989 68.9605 466.989 68.0556V65.0482C466.989 64.1293 467.177 63.3357 467.553 62.6674C467.943 61.9991 468.493 61.491 469.203 61.1429C469.927 60.7809 470.762 60.5999 471.709 60.5999C473.087 60.5999 474.194 60.9619 475.029 61.6859C475.865 62.4099 476.303 63.3984 476.345 64.6514H474.09C474.048 63.9971 473.818 63.4889 473.4 63.1269C472.983 62.7649 472.419 62.5839 471.709 62.5839C470.943 62.5839 470.337 62.7997 469.892 63.2313C469.446 63.649 469.224 64.2477 469.224 65.0273V68.0556C469.224 68.8352 469.446 69.4409 469.892 69.8725C470.337 70.3041 470.943 70.5199 471.709 70.5199C472.419 70.5199 472.983 70.3389 473.4 69.9769C473.818 69.6149 474.048 69.1067 474.09 68.4524H476.345C476.303 69.7054 475.865 70.6939 475.029 71.4179C474.194 72.1419 473.087 72.5039 471.709 72.5039ZM484.356 72.295C483.312 72.295 482.498 72.0096 481.913 71.4388C481.328 70.868 481.036 70.0744 481.036 69.058V62.8554H477.861V60.8087H481.036V57.5717H483.291V60.8087H487.781V62.8554H483.291V69.058C483.291 69.8516 483.674 70.2484 484.44 70.2484H487.573V72.295H484.356ZM490.008 72.295V70.2484H494.038V62.8554H490.53V60.8087H496.231V70.2484H499.928V72.295H490.008ZM494.916 58.8247C494.428 58.8247 494.038 58.6994 493.746 58.4488C493.454 58.1843 493.308 57.8362 493.308 57.4046C493.308 56.9591 493.454 56.611 493.746 56.3604C494.038 56.0959 494.428 55.9636 494.916 55.9636C495.403 55.9636 495.793 56.0959 496.085 56.3604C496.378 56.611 496.524 56.9591 496.524 57.4046C496.524 57.8362 496.378 58.1843 496.085 58.4488C495.793 58.6994 495.403 58.8247 494.916 58.8247ZM506.06 72.483C505.113 72.483 504.291 72.302 503.595 71.94C502.899 71.578 502.363 71.0629 501.987 70.3946C501.611 69.7263 501.423 68.9397 501.423 68.0347V65.0691C501.423 64.1502 501.611 63.3636 501.987 62.7092C502.363 62.0409 502.899 61.5258 503.595 61.1638C504.291 60.8018 505.113 60.6208 506.06 60.6208C507.006 60.6208 507.828 60.8018 508.524 61.1638C509.22 61.5258 509.756 62.0409 510.132 62.7092C510.508 63.3636 510.696 64.1502 510.696 65.0691V68.0347C510.696 68.9397 510.508 69.7263 510.132 70.3946C509.756 71.0629 509.22 71.578 508.524 71.94C507.828 72.302 507.006 72.483 506.06 72.483ZM506.06 70.499C506.825 70.499 507.417 70.2902 507.835 69.8725C508.252 69.4409 508.461 68.8283 508.461 68.0347V65.0691C508.461 64.2616 508.252 63.649 507.835 63.2313C507.417 62.8136 506.825 62.6048 506.06 62.6048C505.308 62.6048 504.716 62.8136 504.284 63.2313C503.867 63.649 503.658 64.2616 503.658 65.0691V68.0347C503.658 68.8283 503.867 69.4409 504.284 69.8725C504.716 70.2902 505.308 70.499 506.06 70.499ZM513.027 72.295V60.8087H515.261V63.0016H515.804L515.261 63.5237C515.261 62.6048 515.533 61.8878 516.076 61.3726C516.619 60.8575 517.371 60.5999 518.331 60.5999C519.473 60.5999 520.385 60.9689 521.067 61.7068C521.749 62.4307 522.091 63.4123 522.091 64.6514V72.295H519.835V64.902C519.835 64.1502 519.633 63.5724 519.229 63.1687C518.826 62.7649 518.276 62.563 517.58 62.563C516.869 62.563 516.306 62.7788 515.888 63.2104C515.484 63.6281 515.282 64.2407 515.282 65.0482V72.295H513.027ZM385.623 113.504C384.676 113.504 383.847 113.33 383.137 112.982C382.441 112.62 381.898 112.105 381.508 111.436C381.133 110.754 380.945 109.961 380.945 109.056V102.289C380.945 101.37 381.133 100.577 381.508 99.9083C381.898 99.24 382.441 98.7318 383.137 98.3837C383.847 98.0217 384.676 97.8407 385.623 97.8407C386.569 97.8407 387.391 98.0217 388.087 98.3837C388.783 98.7457 389.319 99.2609 389.695 99.9292C390.085 100.584 390.28 101.37 390.28 102.289H388.024C388.024 101.495 387.815 100.89 387.398 100.472C386.98 100.054 386.388 99.8456 385.623 99.8456C384.857 99.8456 384.258 100.054 383.827 100.472C383.409 100.89 383.2 101.489 383.2 102.268V109.056C383.2 109.835 383.409 110.441 383.827 110.872C384.258 111.29 384.857 111.499 385.623 111.499C386.388 111.499 386.98 111.29 387.398 110.872C387.815 110.441 388.024 109.835 388.024 109.056H390.28C390.28 109.961 390.085 110.747 389.695 111.415C389.319 112.084 388.783 112.599 388.087 112.961C387.391 113.323 386.569 113.504 385.623 113.504ZM397.017 113.483C396.07 113.483 395.249 113.302 394.553 112.94C393.857 112.578 393.321 112.063 392.945 111.395C392.569 110.726 392.381 109.94 392.381 109.035V106.069C392.381 105.15 392.569 104.364 392.945 103.709C393.321 103.041 393.857 102.526 394.553 102.164C395.249 101.802 396.07 101.621 397.017 101.621C397.964 101.621 398.785 101.802 399.482 102.164C400.178 102.526 400.714 103.041 401.09 103.709C401.466 104.364 401.654 105.15 401.654 106.069V109.035C401.654 109.94 401.466 110.726 401.09 111.395C400.714 112.063 400.178 112.578 399.482 112.94C398.785 113.302 397.964 113.483 397.017 113.483ZM397.017 111.499C397.783 111.499 398.375 111.29 398.792 110.872C399.21 110.441 399.419 109.828 399.419 109.035V106.069C399.419 105.262 399.21 104.649 398.792 104.231C398.375 103.814 397.783 103.605 397.017 103.605C396.265 103.605 395.674 103.814 395.242 104.231C394.824 104.649 394.616 105.262 394.616 106.069V109.035C394.616 109.828 394.824 110.441 395.242 110.872C395.674 111.29 396.265 111.499 397.017 111.499ZM405.488 117.054V115.112H409.017C409.602 115.112 410.034 114.973 410.312 114.694C410.605 114.416 410.751 114.005 410.751 113.462V112.313L410.793 110.183H410.312L410.772 109.766C410.772 110.643 410.493 111.332 409.936 111.833C409.393 112.334 408.655 112.585 407.723 112.585C406.539 112.585 405.606 112.195 404.924 111.415C404.242 110.636 403.901 109.585 403.901 108.262V105.923C403.901 104.6 404.242 103.549 404.924 102.769C405.606 101.99 406.539 101.6 407.723 101.6C408.655 101.6 409.393 101.857 409.936 102.373C410.493 102.874 410.772 103.563 410.772 104.44L410.312 104.002H410.772L410.751 101.809H412.985V113.504C412.985 114.604 412.637 115.467 411.941 116.094C411.245 116.734 410.277 117.054 409.038 117.054H405.488ZM408.454 110.643C409.164 110.643 409.721 110.427 410.124 109.995C410.542 109.55 410.751 108.937 410.751 108.158V106.048C410.751 105.269 410.542 104.663 410.124 104.231C409.721 103.786 409.164 103.563 408.454 103.563C407.716 103.563 407.145 103.779 406.741 104.21C406.351 104.628 406.156 105.241 406.156 106.048V108.158C406.156 108.951 406.351 109.564 406.741 109.995C407.145 110.427 407.716 110.643 408.454 110.643ZM415.463 113.295V101.809H417.697V104.002H418.24L417.697 104.524C417.697 103.605 417.969 102.888 418.512 102.373C419.055 101.857 419.806 101.6 420.767 101.6C421.909 101.6 422.821 101.969 423.503 102.707C424.185 103.431 424.526 104.412 424.526 105.651V113.295H422.271V105.902C422.271 105.15 422.069 104.572 421.665 104.169C421.261 103.765 420.711 103.563 420.015 103.563C419.305 103.563 418.741 103.779 418.324 104.21C417.92 104.628 417.718 105.241 417.718 106.048V113.295H415.463ZM426.878 113.295V111.248H430.909V103.855H427.4V101.809H433.102V111.248H436.798V113.295H426.878ZM431.786 99.8247C431.299 99.8247 430.909 99.6994 430.616 99.4488C430.324 99.1843 430.178 98.8362 430.178 98.4046C430.178 97.9591 430.324 97.611 430.616 97.3604C430.909 97.0959 431.299 96.9636 431.786 96.9636C432.273 96.9636 432.663 97.0959 432.955 97.3604C433.248 97.611 433.394 97.9591 433.394 98.4046C433.394 98.8362 433.248 99.1843 432.955 99.4488C432.663 99.6994 432.273 99.8247 431.786 99.8247ZM444.183 113.295C443.139 113.295 442.324 113.01 441.739 112.439C441.155 111.868 440.862 111.074 440.862 110.058V103.855H437.688V101.809H440.862V98.5717H443.118V101.809H447.608V103.855H443.118V110.058C443.118 110.852 443.501 111.248 444.266 111.248H447.399V113.295H444.183ZM449.834 113.295V111.248H453.865V103.855H450.356V101.809H456.058V111.248H459.754V113.295H449.834ZM454.742 99.8247C454.255 99.8247 453.865 99.6994 453.573 99.4488C453.28 99.1843 453.134 98.8362 453.134 98.4046C453.134 97.9591 453.28 97.611 453.573 97.3604C453.865 97.0959 454.255 96.9636 454.742 96.9636C455.229 96.9636 455.619 97.0959 455.912 97.3604C456.204 97.611 456.35 97.9591 456.35 98.4046C456.35 98.8362 456.204 99.1843 455.912 99.4488C455.619 99.6994 455.229 99.8247 454.742 99.8247ZM465.886 113.483C464.939 113.483 464.118 113.302 463.422 112.94C462.726 112.578 462.19 112.063 461.814 111.395C461.438 110.726 461.25 109.94 461.25 109.035V106.069C461.25 105.15 461.438 104.364 461.814 103.709C462.19 103.041 462.726 102.526 463.422 102.164C464.118 101.802 464.939 101.621 465.886 101.621C466.833 101.621 467.654 101.802 468.35 102.164C469.047 102.526 469.583 103.041 469.959 103.709C470.334 104.364 470.522 105.15 470.522 106.069V109.035C470.522 109.94 470.334 110.726 469.959 111.395C469.583 112.063 469.047 112.578 468.35 112.94C467.654 113.302 466.833 113.483 465.886 113.483ZM465.886 111.499C466.652 111.499 467.244 111.29 467.661 110.872C468.079 110.441 468.288 109.828 468.288 109.035V106.069C468.288 105.262 468.079 104.649 467.661 104.231C467.244 103.814 466.652 103.605 465.886 103.605C465.134 103.605 464.543 103.814 464.111 104.231C463.693 104.649 463.484 105.262 463.484 106.069V109.035C463.484 109.828 463.693 110.441 464.111 110.872C464.543 111.29 465.134 111.499 465.886 111.499ZM472.853 113.295V101.809H475.088V104.002H475.631L475.088 104.524C475.088 103.605 475.359 102.888 475.902 102.373C476.445 101.857 477.197 101.6 478.158 101.6C479.3 101.6 480.211 101.969 480.894 102.707C481.576 103.431 481.917 104.412 481.917 105.651V113.295H479.662V105.902C479.662 105.15 479.46 104.572 479.056 104.169C478.652 103.765 478.102 103.563 477.406 103.563C476.696 103.563 476.132 103.779 475.714 104.21C475.311 104.628 475.109 105.241 475.109 106.048V113.295H472.853ZM397.389 154.295L401.274 139.05H404.239L408.124 154.295H405.847L404.928 150.431H400.605L399.686 154.295H397.389ZM401.023 148.573H404.49L403.445 144.166C403.264 143.387 403.111 142.711 402.986 142.14C402.875 141.556 402.798 141.159 402.756 140.95C402.715 141.159 402.638 141.556 402.527 142.14C402.415 142.711 402.262 143.38 402.067 144.145L401.023 148.573ZM414.318 154.504C413.371 154.504 412.536 154.33 411.812 153.982C411.102 153.62 410.552 153.105 410.162 152.436C409.786 151.754 409.598 150.961 409.598 150.056V147.048C409.598 146.129 409.786 145.336 410.162 144.667C410.552 143.999 411.102 143.491 411.812 143.143C412.536 142.781 413.371 142.6 414.318 142.6C415.696 142.6 416.803 142.962 417.639 143.686C418.474 144.41 418.913 145.398 418.954 146.651H416.699C416.657 145.997 416.427 145.489 416.01 145.127C415.592 144.765 415.028 144.584 414.318 144.584C413.552 144.584 412.947 144.8 412.501 145.231C412.056 145.649 411.833 146.248 411.833 147.027V150.056C411.833 150.835 412.056 151.441 412.501 151.872C412.947 152.304 413.552 152.52 414.318 152.52C415.028 152.52 415.592 152.339 416.01 151.977C416.427 151.615 416.657 151.107 416.699 150.452H418.954C418.913 151.705 418.474 152.694 417.639 153.418C416.803 154.142 415.696 154.504 414.318 154.504ZM426.966 154.295C425.921 154.295 425.107 154.01 424.522 153.439C423.937 152.868 423.645 152.074 423.645 151.058V144.855H420.471V142.809H423.645V139.572H425.901V142.809H430.391V144.855H425.901V151.058C425.901 151.852 426.283 152.248 427.049 152.248H430.182V154.295H426.966ZM432.617 154.295V152.248H436.648V144.855H433.139V142.809H438.841V152.248H442.537V154.295H432.617ZM437.525 140.825C437.038 140.825 436.648 140.699 436.355 140.449C436.063 140.184 435.917 139.836 435.917 139.405C435.917 138.959 436.063 138.611 436.355 138.36C436.648 138.096 437.038 137.964 437.525 137.964C438.012 137.964 438.402 138.096 438.694 138.36C438.987 138.611 439.133 138.959 439.133 139.405C439.133 139.836 438.987 140.184 438.694 140.449C438.402 140.699 438.012 140.825 437.525 140.825ZM448.669 154.483C447.722 154.483 446.901 154.302 446.205 153.94C445.508 153.578 444.972 153.063 444.596 152.395C444.221 151.726 444.033 150.94 444.033 150.035V147.069C444.033 146.15 444.221 145.364 444.596 144.709C444.972 144.041 445.508 143.526 446.205 143.164C446.901 142.802 447.722 142.621 448.669 142.621C449.616 142.621 450.437 142.802 451.133 143.164C451.829 143.526 452.365 144.041 452.741 144.709C453.117 145.364 453.305 146.15 453.305 147.069V150.035C453.305 150.94 453.117 151.726 452.741 152.395C452.365 153.063 451.829 153.578 451.133 153.94C450.437 154.302 449.616 154.483 448.669 154.483ZM448.669 152.499C449.435 152.499 450.026 152.29 450.444 151.872C450.862 151.441 451.071 150.828 451.071 150.035V147.069C451.071 146.262 450.862 145.649 450.444 145.231C450.026 144.814 449.435 144.605 448.669 144.605C447.917 144.605 447.325 144.814 446.894 145.231C446.476 145.649 446.267 146.262 446.267 147.069V150.035C446.267 150.828 446.476 151.441 446.894 151.872C447.325 152.29 447.917 152.499 448.669 152.499ZM455.636 154.295V142.809H457.871V145.002H458.414L457.871 145.524C457.871 144.605 458.142 143.888 458.685 143.373C459.228 142.857 459.98 142.6 460.941 142.6C462.082 142.6 462.994 142.969 463.676 143.707C464.359 144.431 464.7 145.412 464.7 146.651V154.295H462.444V146.902C462.444 146.15 462.242 145.572 461.839 145.169C461.435 144.765 460.885 144.563 460.189 144.563C459.479 144.563 458.915 144.779 458.497 145.21C458.093 145.628 457.892 146.241 457.892 147.048V154.295H455.636Z" fill="black" style="fill:black;fill-opacity:1;"/>
<line x1="291" y1="86.1268" x2="291" y2="129.457" stroke="black" stroke-opacity="0.2" style="stroke:black;stroke-opacity:0.2;" stroke-width="2"/>
<line x1="571" y1="86.1268" x2="571" y2="318.127" stroke="black" stroke-opacity="0.2" style="stroke:black;stroke-opacity:0.2;" stroke-width="2"/>
<line x1="291" y1="21.1268" x2="291" y2="74.1268" stroke="black" stroke-opacity="0.2" style="stroke:black;stroke-opacity:0.2;" stroke-width="2"/>
<line x1="571" y1="21.1268" x2="571" y2="73.6913" stroke="black" stroke-opacity="0.2" style="stroke:black;stroke-opacity:0.2;" stroke-width="2"/>
<line x1="66" y1="319.127" x2="174.681" y2="319.127" stroke="black" stroke-opacity="0.2" style="stroke:black;stroke-opacity:0.2;" stroke-width="2"/>
<line x1="572.001" y1="319.127" x2="463.058" y2="319.228" stroke="black" stroke-opacity="0.2" style="stroke:black;stroke-opacity:0.2;" stroke-width="2"/>
<line x1="186" y1="319.127" x2="230.04" y2="319.127" stroke="black" stroke-opacity="0.2" style="stroke:black;stroke-opacity:0.2;" stroke-width="2"/>
<line x1="450.271" y1="319.228" x2="406.231" y2="319.228" stroke="black" stroke-opacity="0.2" style="stroke:black;stroke-opacity:0.2;" stroke-width="2"/>
<line x1="292" y1="22.1268" x2="368.716" y2="22.1268" stroke="black" stroke-opacity="0.2" style="stroke:black;stroke-opacity:0.2;" stroke-width="2"/>
<line x1="411" y1="22.1268" x2="570" y2="22.1268" stroke="black" stroke-opacity="0.2" style="stroke:black;stroke-opacity:0.2;" stroke-width="2"/>
<line x1="67" y1="318.127" x2="67" y2="200.127" stroke="black" stroke-opacity="0.2" style="stroke:black;stroke-opacity:0.2;" stroke-width="2"/>
<path d="M184.608 319.294L176.616 323.907L176.616 314.68L184.608 319.294Z" fill="#ABB2FA" style="fill:#ABB2FA;fill:color(display-p3 0.6706 0.6990 0.9799);fill-opacity:1;"/>
<path d="M452.402 319.294L460.393 314.68L460.393 323.907L452.402 319.294Z" fill="#ABB2FA" style="fill:#ABB2FA;fill:color(display-p3 0.6706 0.6990 0.9799);fill-opacity:1;"/>
<path d="M290.802 84.5295L286.188 76.5383L295.416 76.5383L290.802 84.5295Z" fill="#ABB2FA" style="fill:#ABB2FA;fill:color(display-p3 0.6706 0.6990 0.9799);fill-opacity:1;"/>
<path d="M571 84.1268L565.804 75.8768L576.196 75.8768L571 84.1268Z" fill="#ABB2FA" style="fill:#ABB2FA;fill:color(display-p3 0.6706 0.6990 0.9799);fill-opacity:1;"/>
<path fill-rule="evenodd" clip-rule="evenodd" d="M298.481 354.513C319.38 354.513 336.322 337.571 336.322 316.671C336.322 295.772 319.38 278.83 298.481 278.83C277.582 278.83 260.64 295.772 260.64 316.671C260.64 337.571 277.582 354.513 298.481 354.513ZM290.347 303.52C288.961 302.135 286.715 302.135 285.33 303.52C283.944 304.906 283.944 307.152 285.33 308.537L293.464 316.671L285.33 324.806C283.944 326.191 283.944 328.437 285.33 329.823C286.715 331.208 288.961 331.208 290.347 329.823L298.481 321.689L306.615 329.823C308.001 331.208 310.247 331.208 311.633 329.823C313.018 328.437 313.018 326.191 311.633 324.806L303.498 316.671L311.633 308.537C313.018 307.152 313.018 304.906 311.633 303.52C310.247 302.135 308.001 302.135 306.615 303.52L298.481 311.654L290.347 303.52Z" fill="#7A1C1C" style="fill:#7A1C1C;fill:color(display-p3 0.4794 0.1098 0.1098);fill-opacity:1;"/>
<path fill-rule="evenodd" clip-rule="evenodd" d="M338.845 392.354C359.744 392.354 376.686 375.412 376.686 354.513C376.686 333.614 359.744 316.671 338.845 316.671C317.946 316.671 301.004 333.614 301.004 354.513C301.004 375.412 317.946 392.354 338.845 392.354ZM357.087 345.956C358.24 344.372 357.889 342.153 356.305 341.001C354.72 339.848 352.501 340.199 351.349 341.783L334.87 364.441L325.981 355.552C324.595 354.166 322.349 354.166 320.963 355.552C319.578 356.937 319.578 359.183 320.963 360.569L332.789 372.394C333.523 373.128 334.541 373.504 335.575 373.422C336.609 373.341 337.556 372.811 338.166 371.972L357.087 345.956Z" fill="#48B159" style="fill:#48B159;fill:color(display-p3 0.2812 0.6957 0.3503);fill-opacity:1;"/>
<rect y="147.382" width="37.8412" height="37.8412" fill="#7780D9" style="fill:#7780D9;fill:color(display-p3 0.4667 0.5020 0.8510);fill-opacity:1;"/>
<rect x="2.91087" y="150.293" width="32.0195" height="32.0195" fill="#B9BFFF" style="fill:#B9BFFF;fill:color(display-p3 0.7246 0.7499 1.0000);fill-opacity:1;"/>
<path d="M4.3663 151.748H7.27716V154.659H4.3663V151.748Z" fill="#B0B7FF" style="fill:#B0B7FF;fill:color(display-p3 0.6897 0.7182 1.0000);fill-opacity:1;"/>
<path d="M4.3663 156.114H7.27716V159.025H4.3663V156.114Z" fill="#B0B7FF" style="fill:#B0B7FF;fill:color(display-p3 0.6897 0.7182 1.0000);fill-opacity:1;"/>
<path d="M4.3663 160.481H7.27716V163.391H4.3663V160.481Z" fill="#B0B7FF" style="fill:#B0B7FF;fill:color(display-p3 0.6897 0.7182 1.0000);fill-opacity:1;"/>
<path d="M4.3663 164.847H7.27716V167.758H4.3663V164.847Z" fill="#ABB2FA" style="fill:#ABB2FA;fill:color(display-p3 0.6706 0.6990 0.9799);fill-opacity:1;"/>
<path d="M4.3663 169.213H7.27716V172.124H4.3663V169.213Z" fill="#ABB2FA" style="fill:#ABB2FA;fill:color(display-p3 0.6706 0.6990 0.9799);fill-opacity:1;"/>
<path d="M4.3663 173.579H7.27716V176.49H4.3663V173.579Z" fill="#ABB2FA" style="fill:#ABB2FA;fill:color(display-p3 0.6706 0.6990 0.9799);fill-opacity:1;"/>
<path d="M4.3663 177.946H7.27716V180.857H4.3663V177.946Z" fill="#969FF4" style="fill:#969FF4;fill:color(display-p3 0.5882 0.6220 0.9566);fill-opacity:1;"/>
<path d="M17.4652 151.748H20.3761V154.659H17.4652V151.748Z" fill="#ABB2FA" style="fill:#ABB2FA;fill:color(display-p3 0.6706 0.6990 0.9799);fill-opacity:1;"/>
<path d="M17.4652 156.114H20.3761V159.025H17.4652V156.114Z" fill="#ABB2FA" style="fill:#ABB2FA;fill:color(display-p3 0.6706 0.6990 0.9799);fill-opacity:1;"/>
<path d="M17.4652 160.481H20.3761V163.391H17.4652V160.481Z" fill="#ABB2FA" style="fill:#ABB2FA;fill:color(display-p3 0.6706 0.6990 0.9799);fill-opacity:1;"/>
<path d="M17.4652 164.847H20.3761V167.758H17.4652V164.847Z" fill="#969FF4" style="fill:#969FF4;fill:color(display-p3 0.5882 0.6220 0.9566);fill-opacity:1;"/>
<path d="M17.4652 169.213H20.3761V172.124H17.4652V169.213Z" fill="#969FF4" style="fill:#969FF4;fill:color(display-p3 0.5882 0.6220 0.9566);fill-opacity:1;"/>
<path d="M17.4652 173.579H20.3761V176.49H17.4652V173.579Z" fill="#969FF4" style="fill:#969FF4;fill:color(display-p3 0.5882 0.6220 0.9566);fill-opacity:1;"/>
<path d="M17.4652 177.946H20.3761V180.857H17.4652V177.946Z" fill="#969FF4" style="fill:#969FF4;fill:color(display-p3 0.5882 0.6220 0.9566);fill-opacity:1;"/>
<path d="M8.73259 151.748H11.6435V154.659H8.73259V151.748Z" fill="#B0B7FF" style="fill:#B0B7FF;fill:color(display-p3 0.6897 0.7182 1.0000);fill-opacity:1;"/>
<path d="M8.73259 156.114H11.6435V159.025H8.73259V156.114Z" fill="#B0B7FF" style="fill:#B0B7FF;fill:color(display-p3 0.6897 0.7182 1.0000);fill-opacity:1;"/>
<path d="M8.73259 160.481H11.6435V163.391H8.73259V160.481Z" fill="#ABB2FA" style="fill:#ABB2FA;fill:color(display-p3 0.6706 0.6990 0.9799);fill-opacity:1;"/>
<path d="M8.73259 164.847H11.6435V167.758H8.73259V164.847Z" fill="#ABB2FA" style="fill:#ABB2FA;fill:color(display-p3 0.6706 0.6990 0.9799);fill-opacity:1;"/>
<path d="M8.73259 169.213H11.6435V172.124H8.73259V169.213Z" fill="#ABB2FA" style="fill:#ABB2FA;fill:color(display-p3 0.6706 0.6990 0.9799);fill-opacity:1;"/>
<path d="M8.73259 173.579H11.6435V176.49H8.73259V173.579Z" fill="#969FF4" style="fill:#969FF4;fill:color(display-p3 0.5882 0.6220 0.9566);fill-opacity:1;"/>
<path d="M8.73259 177.946H11.6435V180.857H8.73259V177.946Z" fill="#969FF4" style="fill:#969FF4;fill:color(display-p3 0.5882 0.6220 0.9566);fill-opacity:1;"/>
<path d="M21.8315 151.748H24.7424V154.659H21.8315V151.748Z" fill="#ABB2FA" style="fill:#ABB2FA;fill:color(display-p3 0.6706 0.6990 0.9799);fill-opacity:1;"/>
<path d="M21.8315 156.114H24.7424V159.025H21.8315V156.114Z" fill="#ABB2FA" style="fill:#ABB2FA;fill:color(display-p3 0.6706 0.6990 0.9799);fill-opacity:1;"/>
<path d="M21.8315 160.481H24.7424V163.391H21.8315V160.481Z" fill="#969FF4" style="fill:#969FF4;fill:color(display-p3 0.5882 0.6220 0.9566);fill-opacity:1;"/>
<path d="M21.8315 164.847H24.7424V167.758H21.8315V164.847Z" fill="#969FF4" style="fill:#969FF4;fill:color(display-p3 0.5882 0.6220 0.9566);fill-opacity:1;"/>
<path d="M21.8315 169.213H24.7424V172.124H21.8315V169.213Z" fill="#969FF4" style="fill:#969FF4;fill:color(display-p3 0.5882 0.6220 0.9566);fill-opacity:1;"/>
<path d="M21.8315 173.579H24.7424V176.49H21.8315V173.579Z" fill="#969FF4" style="fill:#969FF4;fill:color(display-p3 0.5882 0.6220 0.9566);fill-opacity:1;"/>
<path d="M21.8315 177.946H24.7424V180.857H21.8315V177.946Z" fill="#969FF4" style="fill:#969FF4;fill:color(display-p3 0.5882 0.6220 0.9566);fill-opacity:1;"/>
<path d="M13.0989 151.748H16.0098V154.659H13.0989V151.748Z" fill="#B0B7FF" style="fill:#B0B7FF;fill:color(display-p3 0.6897 0.7182 1.0000);fill-opacity:1;"/>
<path d="M13.0989 156.114H16.0098V159.025H13.0989V156.114Z" fill="#ABB2FA" style="fill:#ABB2FA;fill:color(display-p3 0.6706 0.6990 0.9799);fill-opacity:1;"/>
<path d="M13.0989 160.481H16.0098V163.391H13.0989V160.481Z" fill="#ABB2FA" style="fill:#ABB2FA;fill:color(display-p3 0.6706 0.6990 0.9799);fill-opacity:1;"/>
<path d="M13.0989 164.847H16.0098V167.758H13.0989V164.847Z" fill="#ABB2FA" style="fill:#ABB2FA;fill:color(display-p3 0.6706 0.6990 0.9799);fill-opacity:1;"/>
<path d="M13.0989 169.213H16.0098V172.124H13.0989V169.213Z" fill="#969FF4" style="fill:#969FF4;fill:color(display-p3 0.5882 0.6220 0.9566);fill-opacity:1;"/>
<path d="M13.0989 173.579H16.0098V176.49H13.0989V173.579Z" fill="#969FF4" style="fill:#969FF4;fill:color(display-p3 0.5882 0.6220 0.9566);fill-opacity:1;"/>
<path d="M13.0989 177.946H16.0098V180.857H13.0989V177.946Z" fill="#969FF4" style="fill:#969FF4;fill:color(display-p3 0.5882 0.6220 0.9566);fill-opacity:1;"/>
<path d="M26.1978 151.748H29.1086V154.659H26.1978V151.748Z" fill="#ABB2FA" style="fill:#ABB2FA;fill:color(display-p3 0.6706 0.6990 0.9799);fill-opacity:1;"/>
<path d="M26.1978 156.114H29.1086V159.025H26.1978V156.114Z" fill="#969FF4" style="fill:#969FF4;fill:color(display-p3 0.5882 0.6220 0.9566);fill-opacity:1;"/>
<path d="M26.1978 160.481H29.1086V163.391H26.1978V160.481Z" fill="#969FF4" style="fill:#969FF4;fill:color(display-p3 0.5882 0.6220 0.9566);fill-opacity:1;"/>
<path d="M26.1978 164.847H29.1086V167.758H26.1978V164.847Z" fill="#969FF4" style="fill:#969FF4;fill:color(display-p3 0.5882 0.6220 0.9566);fill-opacity:1;"/>
<path d="M26.1978 169.213H29.1086V172.124H26.1978V169.213Z" fill="#969FF4" style="fill:#969FF4;fill:color(display-p3 0.5882 0.6220 0.9566);fill-opacity:1;"/>
<path d="M26.1978 173.579H29.1086V176.49H26.1978V173.579Z" fill="#969FF4" style="fill:#969FF4;fill:color(display-p3 0.5882 0.6220 0.9566);fill-opacity:1;"/>
<path d="M26.1978 177.946H29.1086V180.857H26.1978V177.946Z" fill="#969FF4" style="fill:#969FF4;fill:color(display-p3 0.5882 0.6220 0.9566);fill-opacity:1;"/>
<path d="M30.5641 151.748H33.4749V154.659H30.5641V151.748Z" fill="#969FF4" style="fill:#969FF4;fill:color(display-p3 0.5882 0.6220 0.9566);fill-opacity:1;"/>
<path d="M30.5641 156.114H33.4749V159.025H30.5641V156.114Z" fill="#969FF4" style="fill:#969FF4;fill:color(display-p3 0.5882 0.6220 0.9566);fill-opacity:1;"/>
<path d="M30.5641 160.481H33.4749V163.391H30.5641V160.481Z" fill="#969FF4" style="fill:#969FF4;fill:color(display-p3 0.5882 0.6220 0.9566);fill-opacity:1;"/>
<path d="M30.5641 164.847H33.4749V167.758H30.5641V164.847Z" fill="#969FF4" style="fill:#969FF4;fill:color(display-p3 0.5882 0.6220 0.9566);fill-opacity:1;"/>
<path d="M30.5641 169.213H33.4749V172.124H30.5641V169.213Z" fill="#969FF4" style="fill:#969FF4;fill:color(display-p3 0.5882 0.6220 0.9566);fill-opacity:1;"/>
<path d="M30.5641 173.579H33.4749V176.49H30.5641V173.579Z" fill="#969FF4" style="fill:#969FF4;fill:color(display-p3 0.5882 0.6220 0.9566);fill-opacity:1;"/>
<path d="M30.5641 177.946H33.4749V180.857H30.5641V177.946Z" fill="#969FF4" style="fill:#969FF4;fill:color(display-p3 0.5882 0.6220 0.9566);fill-opacity:1;"/>
</svg>
