<svg width="577" height="416" viewBox="0 0 577 416" fill="none" xmlns="http://www.w3.org/2000/svg">
<rect x="48.544" y="135.576" width="263.604" height="58.318" stroke="#ABB2FA" style="stroke:#ABB2FA;stroke:color(display-p3 0.6706 0.6990 0.9799);stroke-opacity:1;" stroke-width="3.4807"/>
<rect x="236.782" y="249.939" width="163.447" height="163.447" stroke="#ABB2FA" style="stroke:#ABB2FA;stroke:color(display-p3 0.6706 0.6990 0.9799);stroke-opacity:1;" stroke-width="3.4807"/>
<path d="M56.1859 129.169V113.923H58.4205V116.116H58.9008L58.4205 116.638C58.4205 115.733 58.6989 115.023 59.2558 114.508C59.8267 113.979 60.5855 113.714 61.5322 113.714C62.6878 113.714 63.6067 114.104 64.2889 114.884C64.9851 115.65 65.3331 116.701 65.3331 118.037V121.274C65.3331 122.165 65.173 122.938 64.8528 123.592C64.5465 124.233 64.1079 124.734 63.5371 125.096C62.9802 125.444 62.3119 125.618 61.5322 125.618C60.5994 125.618 59.8476 125.361 59.2767 124.846C58.7059 124.316 58.4205 123.599 58.4205 122.694L58.9008 123.217H58.3787L58.4414 125.89V129.169H56.1859ZM60.7595 123.655C61.4974 123.655 62.0682 123.446 62.472 123.029C62.8897 122.597 63.0985 121.977 63.0985 121.17V118.163C63.0985 117.355 62.8897 116.742 62.472 116.325C62.0682 115.893 61.4974 115.677 60.7595 115.677C60.0494 115.677 59.4856 115.9 59.0679 116.346C58.6502 116.777 58.4414 117.383 58.4414 118.163V121.17C58.4414 121.95 58.6502 122.562 59.0679 123.008C59.4856 123.439 60.0494 123.655 60.7595 123.655ZM73.8248 125.409C73.1148 125.409 72.4952 125.27 71.9662 124.992C71.4371 124.699 71.0194 124.289 70.7131 123.76C70.4207 123.231 70.2745 122.618 70.2745 121.922V112.211H66.5154V110.164H72.53V121.922C72.53 122.367 72.6553 122.722 72.9059 122.987C73.1566 123.237 73.4977 123.363 73.9293 123.363H77.4796V125.409H73.8248ZM82.5045 125.618C81.3072 125.618 80.3604 125.312 79.6643 124.699C78.982 124.073 78.6409 123.224 78.6409 122.151C78.6409 121.066 79.0029 120.216 79.7269 119.604C80.4648 118.977 81.4742 118.664 82.7551 118.664H85.9504V117.599C85.9504 116.972 85.7555 116.485 85.3656 116.137C84.9758 115.789 84.4259 115.615 83.7158 115.615C83.0893 115.615 82.5672 115.754 82.1495 116.032C81.7318 116.297 81.4881 116.652 81.4185 117.098H79.2048C79.3301 116.067 79.8035 115.246 80.6249 114.633C81.4603 114.021 82.5115 113.714 83.7784 113.714C85.1429 113.714 86.2219 114.062 87.0155 114.758C87.8091 115.441 88.2059 116.374 88.2059 117.557V125.409H86.0131V123.3H85.6371L86.0131 122.882C86.0131 123.718 85.6928 124.386 85.0524 124.887C84.4119 125.375 83.5626 125.618 82.5045 125.618ZM83.1728 123.885C83.9803 123.885 84.6417 123.683 85.1568 123.279C85.6859 122.862 85.9504 122.332 85.9504 121.692V120.188H82.7969C82.2121 120.188 81.7457 120.348 81.3976 120.669C81.0635 120.989 80.8964 121.428 80.8964 121.984C80.8964 122.569 81.0983 123.036 81.5021 123.384C81.9058 123.718 82.4627 123.885 83.1728 123.885ZM90.6203 125.409V113.923H92.8549V116.116H93.3979L92.8549 116.638C92.8549 115.719 93.1264 115.002 93.6694 114.487C94.2124 113.972 94.9642 113.714 95.9249 113.714C97.0666 113.714 97.9785 114.083 98.6607 114.821C99.3429 115.545 99.684 116.527 99.684 117.766V125.409H97.4286V118.016C97.4286 117.265 97.2267 116.687 96.8229 116.283C96.4192 115.879 95.8692 115.677 95.1731 115.677C94.463 115.677 93.8991 115.893 93.4814 116.325C93.0777 116.742 92.8758 117.355 92.8758 118.163V125.409H90.6203ZM106.609 125.597C105.663 125.597 104.841 125.416 104.145 125.054C103.449 124.692 102.913 124.177 102.537 123.509C102.161 122.841 101.973 122.054 101.973 121.149V118.183C101.973 117.265 102.161 116.478 102.537 115.824C102.913 115.155 103.449 114.64 104.145 114.278C104.841 113.916 105.663 113.735 106.609 113.735C107.556 113.735 108.378 113.916 109.074 114.278C109.77 114.64 110.306 115.155 110.682 115.824C111.058 116.478 111.246 117.265 111.246 118.183V121.149C111.246 122.054 111.058 122.841 110.682 123.509C110.306 124.177 109.77 124.692 109.074 125.054C108.378 125.416 107.556 125.597 106.609 125.597ZM106.609 123.613C107.375 123.613 107.967 123.405 108.385 122.987C108.802 122.555 109.011 121.943 109.011 121.149V118.183C109.011 117.376 108.802 116.763 108.385 116.346C107.967 115.928 107.375 115.719 106.609 115.719C105.858 115.719 105.266 115.928 104.834 116.346C104.417 116.763 104.208 117.376 104.208 118.183V121.149C104.208 121.943 104.417 122.555 104.834 122.987C105.266 123.405 105.858 123.613 106.609 123.613Z" fill="black" style="fill:black;fill-opacity:1;"/>
<path d="M73.4106 175.114C72.204 175.114 71.1551 174.882 70.2641 174.418C69.3916 173.954 68.714 173.286 68.2314 172.413C67.7487 171.541 67.5074 170.52 67.5074 169.35V159.994C67.5074 158.806 67.7487 157.785 68.2314 156.931C68.714 156.059 69.3916 155.39 70.2641 154.926C71.1551 154.462 72.204 154.23 73.4106 154.23C74.5987 154.23 75.629 154.472 76.5015 154.954C77.3926 155.418 78.0794 156.087 78.5621 156.959C79.0447 157.832 79.2861 158.871 79.2861 160.078H77.0863C77.0863 158.853 76.7614 157.906 76.1117 157.238C75.4619 156.551 74.5616 156.207 73.4106 156.207C72.2597 156.207 71.3501 156.541 70.6818 157.21C70.032 157.859 69.7072 158.788 69.7072 159.994V169.35C69.7072 170.538 70.032 171.467 70.6818 172.135C71.3501 172.803 72.2597 173.137 73.4106 173.137C74.5616 173.137 75.4619 172.803 76.1117 172.135C76.7614 171.448 77.0863 170.492 77.0863 169.267H79.2861C79.2861 170.455 79.0447 171.494 78.5621 172.386C78.0794 173.258 77.3926 173.936 76.5015 174.418C75.629 174.882 74.5987 175.114 73.4106 175.114ZM88.5756 175.087C87.3875 175.087 86.3572 174.855 85.4847 174.39C84.6122 173.926 83.9347 173.258 83.452 172.386C82.9694 171.513 82.728 170.483 82.728 169.295V165.062C82.728 163.856 82.9694 162.825 83.452 161.971C83.9347 161.099 84.6122 160.431 85.4847 159.966C86.3572 159.502 87.3875 159.27 88.5756 159.27C89.7637 159.27 90.794 159.502 91.6665 159.966C92.539 160.431 93.2165 161.099 93.6992 161.971C94.1819 162.825 94.4232 163.846 94.4232 165.034V169.295C94.4232 170.483 94.1819 171.513 93.6992 172.386C93.2165 173.258 92.539 173.926 91.6665 174.39C90.794 174.855 89.7637 175.087 88.5756 175.087ZM88.5756 173.11C89.7266 173.11 90.6176 172.785 91.2488 172.135C91.8799 171.485 92.1955 170.538 92.1955 169.295V165.062C92.1955 163.818 91.8707 162.872 91.2209 162.222C90.5898 161.572 89.708 161.247 88.5756 161.247C87.4432 161.247 86.5522 161.572 85.9024 162.222C85.2713 162.872 84.9557 163.818 84.9557 165.062V169.295C84.9557 170.538 85.2713 171.485 85.9024 172.135C86.5522 172.785 87.4432 173.11 88.5756 173.11ZM98.2271 174.836V159.521H100.427V162.361H100.984L100.371 163.169C100.371 161.943 100.743 160.987 101.485 160.301C102.246 159.595 103.276 159.242 104.576 159.242C106.098 159.242 107.314 159.725 108.224 160.69C109.133 161.637 109.588 162.927 109.588 164.561V174.836H107.388V164.812C107.388 163.642 107.082 162.742 106.469 162.111C105.857 161.479 105.021 161.164 103.963 161.164C102.868 161.164 102.005 161.498 101.374 162.166C100.743 162.835 100.427 163.781 100.427 165.006V174.836H98.2271ZM117.096 174.836V163.057H112.585V161.052H117.096V158.296C117.096 157.126 117.458 156.207 118.182 155.539C118.924 154.852 119.936 154.509 121.217 154.509H125.644V156.514H121.217C120.604 156.514 120.131 156.671 119.797 156.987C119.481 157.284 119.323 157.72 119.323 158.296V161.052H125.644V163.057H119.323V174.836H117.096ZM128.585 174.836V172.831H134.043V161.526H129.281V159.521H136.27V172.831H141.45V174.836H128.585ZM134.906 156.708C134.33 156.708 133.866 156.56 133.514 156.263C133.179 155.966 133.012 155.558 133.012 155.038C133.012 154.499 133.179 154.072 133.514 153.757C133.866 153.441 134.33 153.283 134.906 153.283C135.481 153.283 135.936 153.441 136.27 153.757C136.623 154.072 136.799 154.499 136.799 155.038C136.799 155.539 136.623 155.947 136.27 156.263C135.936 156.56 135.481 156.708 134.906 156.708ZM144.641 174.836V159.521H146.813V162.361H147.342L146.562 164.115C146.581 162.556 146.961 161.359 147.704 160.523C148.447 159.669 149.514 159.242 150.906 159.242C152.521 159.242 153.802 159.753 154.749 160.774C155.714 161.776 156.197 163.132 156.197 164.839V165.758H153.941V165.006C153.941 163.763 153.635 162.807 153.022 162.138C152.41 161.452 151.537 161.108 150.405 161.108C149.31 161.108 148.447 161.452 147.815 162.138C147.184 162.825 146.869 163.781 146.869 165.006V174.836H144.641ZM158.664 174.836V159.521H160.613V161.414H161.031L160.725 162.027C160.725 161.173 160.948 160.495 161.393 159.994C161.857 159.493 162.488 159.242 163.287 159.242C164.122 159.242 164.772 159.539 165.236 160.133C165.718 160.728 165.969 161.563 165.988 162.64L165.403 161.414H166.322L165.932 162.027C165.932 161.173 166.164 160.495 166.628 159.994C167.092 159.493 167.723 159.242 168.522 159.242C169.468 159.242 170.202 159.595 170.721 160.301C171.26 161.006 171.529 161.943 171.529 163.113V174.836H169.468V163.113C169.468 162.445 169.32 161.925 169.023 161.554C168.726 161.164 168.308 160.969 167.77 160.969C167.231 160.969 166.804 161.164 166.489 161.554C166.173 161.925 166.016 162.445 166.016 163.113V174.836H164.178V163.113C164.178 162.426 164.02 161.897 163.704 161.526C163.407 161.154 162.99 160.969 162.451 160.969C161.913 160.969 161.495 161.154 161.198 161.526C160.901 161.897 160.743 162.426 160.725 163.113V174.836H158.664ZM194.508 175.114C192.893 175.114 191.621 174.706 190.693 173.889C189.765 173.054 189.301 171.931 189.301 170.52C189.301 169.128 189.755 168.032 190.665 167.234C191.575 166.417 192.8 166.009 194.341 166.009H199.214V164.394C199.214 163.373 198.917 162.584 198.322 162.027C197.728 161.47 196.884 161.192 195.789 161.192C194.823 161.192 194.016 161.405 193.366 161.832C192.735 162.259 192.373 162.835 192.28 163.559H190.052C190.238 162.24 190.851 161.192 191.89 160.412C192.948 159.632 194.266 159.242 195.844 159.242C197.552 159.242 198.907 159.707 199.91 160.635C200.912 161.544 201.413 162.779 201.413 164.338V174.836H199.241V171.856H198.879L199.297 171.411C199.297 172.543 198.861 173.444 197.988 174.112C197.116 174.78 195.956 175.114 194.508 175.114ZM195.037 173.332C196.262 173.332 197.264 173.026 198.044 172.413C198.824 171.801 199.214 171.003 199.214 170.019V167.707H194.368C193.496 167.707 192.8 167.949 192.28 168.431C191.76 168.914 191.5 169.573 191.5 170.409C191.5 171.3 191.816 172.014 192.447 172.553C193.078 173.072 193.941 173.332 195.037 173.332ZM211.093 175.114C209.905 175.114 208.865 174.882 207.974 174.418C207.083 173.954 206.387 173.295 205.886 172.441C205.403 171.569 205.162 170.538 205.162 169.35V165.006C205.162 163.818 205.403 162.797 205.886 161.943C206.387 161.071 207.083 160.403 207.974 159.939C208.865 159.474 209.905 159.242 211.093 159.242C212.838 159.242 214.239 159.716 215.297 160.663C216.356 161.609 216.903 162.899 216.94 164.533H214.741C214.703 163.475 214.36 162.658 213.71 162.083C213.079 161.507 212.207 161.219 211.093 161.219C209.96 161.219 209.06 161.554 208.392 162.222C207.723 162.872 207.389 163.8 207.389 165.006V169.35C207.389 170.538 207.723 171.467 208.392 172.135C209.06 172.803 209.96 173.137 211.093 173.137C212.207 173.137 213.079 172.85 213.71 172.274C214.36 171.68 214.703 170.863 214.741 169.824H216.94C216.903 171.457 216.356 172.748 215.297 173.694C214.239 174.641 212.838 175.114 211.093 175.114ZM227.984 174.836C226.703 174.836 225.71 174.502 225.005 173.834C224.299 173.147 223.947 172.181 223.947 170.938V161.526H219.603V159.521H223.947V155.205H226.174V159.521H232.328V161.526H226.174V170.938C226.174 172.2 226.777 172.831 227.984 172.831H232.05V174.836H227.984ZM235.714 174.836V172.831H241.172V161.526H236.41V159.521H243.4V172.831H248.579V174.836H235.714ZM242.035 156.708C241.46 156.708 240.996 156.56 240.643 156.263C240.309 155.966 240.142 155.558 240.142 155.038C240.142 154.499 240.309 154.072 240.643 153.757C240.996 153.441 241.46 153.283 242.035 153.283C242.611 153.283 243.066 153.441 243.4 153.757C243.752 154.072 243.929 154.499 243.929 155.038C243.929 155.539 243.752 155.947 243.4 156.263C243.066 156.56 242.611 156.708 242.035 156.708ZM256.922 175.087C255.734 175.087 254.703 174.855 253.831 174.39C252.958 173.926 252.281 173.258 251.798 172.386C251.316 171.513 251.074 170.483 251.074 169.295V165.062C251.074 163.856 251.316 162.825 251.798 161.971C252.281 161.099 252.958 160.431 253.831 159.966C254.703 159.502 255.734 159.27 256.922 159.27C258.11 159.27 259.14 159.502 260.013 159.966C260.885 160.431 261.563 161.099 262.045 161.971C262.528 162.825 262.769 163.846 262.769 165.034V169.295C262.769 170.483 262.528 171.513 262.045 172.386C261.563 173.258 260.885 173.926 260.013 174.39C259.14 174.855 258.11 175.087 256.922 175.087ZM256.922 173.11C258.073 173.11 258.964 172.785 259.595 172.135C260.226 171.485 260.542 170.538 260.542 169.295V165.062C260.542 163.818 260.217 162.872 259.567 162.222C258.936 161.572 258.054 161.247 256.922 161.247C255.789 161.247 254.898 161.572 254.249 162.222C253.617 162.872 253.302 163.818 253.302 165.062V169.295C253.302 170.538 253.617 171.485 254.249 172.135C254.898 172.785 255.789 173.11 256.922 173.11ZM266.573 174.836V159.521H268.773V162.361H269.33L268.717 163.169C268.717 161.943 269.089 160.987 269.831 160.301C270.592 159.595 271.623 159.242 272.922 159.242C274.444 159.242 275.66 159.725 276.57 160.69C277.48 161.637 277.934 162.927 277.934 164.561V174.836H275.735V164.812C275.735 163.642 275.428 162.742 274.816 162.111C274.203 161.479 273.368 161.164 272.31 161.164C271.214 161.164 270.351 161.498 269.72 162.166C269.089 162.835 268.773 163.781 268.773 165.006V174.836H266.573ZM285.275 169.128V164.199H286.667C287.892 164.199 288.867 163.856 289.591 163.169C290.315 162.463 290.677 161.535 290.677 160.384C290.677 159.233 290.315 158.314 289.591 157.627C288.867 156.922 287.883 156.569 286.639 156.569H283.186V154.509H286.639C287.901 154.509 288.997 154.75 289.925 155.233C290.872 155.715 291.605 156.393 292.125 157.265C292.645 158.138 292.904 159.177 292.904 160.384C292.904 161.461 292.672 162.426 292.208 163.28C291.763 164.115 291.132 164.774 290.315 165.257C289.498 165.74 288.551 166.009 287.475 166.065V169.128H285.275ZM286.027 174.975C285.544 174.975 285.145 174.827 284.829 174.53C284.532 174.214 284.384 173.815 284.384 173.332C284.384 172.868 284.532 172.488 284.829 172.191C285.145 171.875 285.544 171.717 286.027 171.717H286.667C287.187 171.717 287.586 171.866 287.864 172.163C288.161 172.46 288.31 172.85 288.31 173.332C288.31 173.796 288.152 174.186 287.837 174.502C287.539 174.817 287.15 174.975 286.667 174.975H286.027Z" fill="black" style="fill:black;fill-opacity:1;"/>
<path d="M341.147 71.1682V69.1633H344.217V57.9276H341.147V55.9227H349.584V57.9276H346.514V69.1633H349.584V71.1682H341.147ZM352.333 71.1682V59.6819H354.567V61.8747H355.11L354.567 62.3968C354.567 61.4779 354.839 60.7609 355.382 60.2458C355.925 59.7306 356.677 59.473 357.637 59.473C358.779 59.473 359.691 59.842 360.373 60.5799C361.055 61.3039 361.396 62.2855 361.396 63.5246V71.1682H359.141V63.7752C359.141 63.0234 358.939 62.4456 358.535 62.0418C358.132 61.638 357.582 61.4362 356.885 61.4362C356.175 61.4362 355.612 61.652 355.194 62.0836C354.79 62.5013 354.588 63.1139 354.588 63.9214V71.1682H352.333ZM369.575 71.1682C368.531 71.1682 367.716 70.8828 367.131 70.3119C366.547 69.7411 366.254 68.9475 366.254 67.9311V61.7285H363.08V59.6819H366.254V56.4448H368.51V59.6819H373V61.7285H368.51V67.9311C368.51 68.7247 368.893 69.1215 369.658 69.1215H372.791V71.1682H369.575ZM379.8 71.377C378.867 71.377 378.046 71.196 377.336 70.8341C376.64 70.4581 376.103 69.936 375.728 69.2677C375.352 68.5994 375.164 67.8198 375.164 66.9287V63.9214C375.164 63.0164 375.352 62.2367 375.728 61.5824C376.103 60.9141 376.64 60.3989 377.336 60.0369C378.046 59.661 378.867 59.473 379.8 59.473C380.747 59.473 381.568 59.661 382.264 60.0369C382.96 60.3989 383.496 60.9141 383.872 61.5824C384.248 62.2367 384.436 63.0164 384.436 63.9214V65.968H377.336V66.9287C377.336 67.778 377.545 68.4254 377.962 68.8709C378.394 69.3165 379.013 69.5392 379.821 69.5392C380.475 69.5392 381.004 69.4278 381.408 69.2051C381.812 68.9684 382.062 68.6273 382.16 68.1818H384.395C384.227 69.1564 383.726 69.936 382.891 70.5208C382.055 71.0916 381.025 71.377 379.8 71.377ZM382.264 64.6106V63.9005C382.264 63.0651 382.055 62.4177 381.638 61.9583C381.22 61.4988 380.608 61.2691 379.8 61.2691C379.006 61.2691 378.394 61.4988 377.962 61.9583C377.545 62.4177 377.336 63.0721 377.336 63.9214V64.4435L382.431 64.4226L382.264 64.6106ZM386.767 71.1682V59.6819H389.002V61.8747H389.545L389.002 62.3968C389.002 61.4779 389.273 60.7609 389.816 60.2458C390.359 59.7306 391.111 59.473 392.072 59.473C393.213 59.473 394.125 59.842 394.808 60.5799C395.49 61.3039 395.831 62.2855 395.831 63.5246V71.1682H393.575V63.7752C393.575 63.0234 393.374 62.4456 392.97 62.0418C392.566 61.638 392.016 61.4362 391.32 61.4362C390.61 61.4362 390.046 61.652 389.628 62.0836C389.225 62.5013 389.023 63.1139 389.023 63.9214V71.1682H386.767ZM404.009 71.1682C402.965 71.1682 402.151 70.8828 401.566 70.3119C400.981 69.7411 400.689 68.9475 400.689 67.9311V61.7285H397.514V59.6819H400.689V56.4448H402.944V59.6819H407.434V61.7285H402.944V67.9311C402.944 68.7247 403.327 69.1215 404.093 69.1215H407.226V71.1682H404.009ZM421.181 71.1682V55.9227H425.441C426.444 55.9227 427.314 56.1177 428.052 56.5075C428.79 56.8834 429.36 57.4194 429.764 58.1156C430.182 58.8117 430.391 59.6332 430.391 60.5799V66.4901C430.391 67.423 430.182 68.2444 429.764 68.9545C429.36 69.6645 428.79 70.2145 428.052 70.6043C427.314 70.9802 426.444 71.1682 425.441 71.1682H421.181ZM423.436 69.1215H425.441C426.276 69.1215 426.931 68.8918 427.404 68.4324C427.892 67.959 428.135 67.3116 428.135 66.4901V60.5799C428.135 59.7724 427.892 59.1389 427.404 58.6794C426.931 58.2061 426.276 57.9694 425.441 57.9694H423.436V69.1215ZM437.191 71.377C436.258 71.377 435.436 71.196 434.726 70.8341C434.03 70.4581 433.494 69.936 433.118 69.2677C432.742 68.5994 432.554 67.8198 432.554 66.9287V63.9214C432.554 63.0164 432.742 62.2367 433.118 61.5824C433.494 60.9141 434.03 60.3989 434.726 60.0369C435.436 59.661 436.258 59.473 437.191 59.473C438.137 59.473 438.959 59.661 439.655 60.0369C440.351 60.3989 440.887 60.9141 441.263 61.5824C441.639 62.2367 441.827 63.0164 441.827 63.9214V65.968H434.726V66.9287C434.726 67.778 434.935 68.4254 435.353 68.8709C435.785 69.3165 436.404 69.5392 437.212 69.5392C437.866 69.5392 438.395 69.4278 438.799 69.2051C439.203 68.9684 439.453 68.6273 439.551 68.1818H441.785C441.618 69.1564 441.117 69.936 440.282 70.5208C439.446 71.0916 438.416 71.377 437.191 71.377ZM439.655 64.6106V63.9005C439.655 63.0651 439.446 62.4177 439.029 61.9583C438.611 61.4988 437.998 61.2691 437.191 61.2691C436.397 61.2691 435.785 61.4988 435.353 61.9583C434.935 62.4177 434.726 63.0721 434.726 63.9214V64.4435L439.822 64.4226L439.655 64.6106ZM449.922 71.1682C448.878 71.1682 448.063 70.8828 447.478 70.3119C446.894 69.7411 446.601 68.9475 446.601 67.9311V61.7285H443.427V59.6819H446.601V56.4448H448.857V59.6819H453.347V61.7285H448.857V67.9311C448.857 68.7247 449.24 69.1215 450.005 69.1215H453.138V71.1682H449.922ZM460.147 71.377C459.214 71.377 458.393 71.196 457.683 70.8341C456.987 70.4581 456.451 69.936 456.075 69.2677C455.699 68.5994 455.511 67.8198 455.511 66.9287V63.9214C455.511 63.0164 455.699 62.2367 456.075 61.5824C456.451 60.9141 456.987 60.3989 457.683 60.0369C458.393 59.661 459.214 59.473 460.147 59.473C461.094 59.473 461.915 59.661 462.611 60.0369C463.308 60.3989 463.844 60.9141 464.219 61.5824C464.595 62.2367 464.783 63.0164 464.783 63.9214V65.968H457.683V66.9287C457.683 67.778 457.892 68.4254 458.309 68.8709C458.741 69.3165 459.36 69.5392 460.168 69.5392C460.822 69.5392 461.351 69.4278 461.755 69.2051C462.159 68.9684 462.409 68.6273 462.507 68.1818H464.742C464.574 69.1564 464.073 69.936 463.238 70.5208C462.403 71.0916 461.372 71.377 460.147 71.377ZM462.611 64.6106V63.9005C462.611 63.0651 462.403 62.4177 461.985 61.9583C461.567 61.4988 460.955 61.2691 460.147 61.2691C459.353 61.2691 458.741 61.4988 458.309 61.9583C457.892 62.4177 457.683 63.0721 457.683 63.9214V64.4435L462.778 64.4226L462.611 64.6106ZM471.709 71.377C470.762 71.377 469.927 71.203 469.203 70.8549C468.493 70.4929 467.943 69.9778 467.553 69.3095C467.177 68.6273 466.989 67.8337 466.989 66.9287V63.9214C466.989 63.0025 467.177 62.2089 467.553 61.5406C467.943 60.8723 468.493 60.3641 469.203 60.016C469.927 59.654 470.762 59.473 471.709 59.473C473.087 59.473 474.194 59.835 475.029 60.559C475.865 61.283 476.303 62.2715 476.345 63.5246H474.09C474.048 62.8702 473.818 62.362 473.4 62C472.983 61.638 472.419 61.457 471.709 61.457C470.943 61.457 470.337 61.6728 469.892 62.1045C469.446 62.5221 469.224 63.1208 469.224 63.9005V66.9287C469.224 67.7084 469.446 68.314 469.892 68.7456C470.337 69.1772 470.943 69.393 471.709 69.393C472.419 69.393 472.983 69.212 473.4 68.8501C473.818 68.4881 474.048 67.9799 474.09 67.3255H476.345C476.303 68.5786 475.865 69.5671 475.029 70.2911C474.194 71.015 473.087 71.377 471.709 71.377ZM484.356 71.1682C483.312 71.1682 482.498 70.8828 481.913 70.3119C481.328 69.7411 481.036 68.9475 481.036 67.9311V61.7285H477.861V59.6819H481.036V56.4448H483.291V59.6819H487.781V61.7285H483.291V67.9311C483.291 68.7247 483.674 69.1215 484.44 69.1215H487.573V71.1682H484.356ZM490.008 71.1682V69.1215H494.038V61.7285H490.53V59.6819H496.231V69.1215H499.928V71.1682H490.008ZM494.916 57.6979C494.428 57.6979 494.038 57.5726 493.746 57.322C493.454 57.0574 493.308 56.7094 493.308 56.2778C493.308 55.8322 493.454 55.4842 493.746 55.2336C494.038 54.969 494.428 54.8368 494.916 54.8368C495.403 54.8368 495.793 54.969 496.085 55.2336C496.378 55.4842 496.524 55.8322 496.524 56.2778C496.524 56.7094 496.378 57.0574 496.085 57.322C495.793 57.5726 495.403 57.6979 494.916 57.6979ZM506.06 71.3562C505.113 71.3562 504.291 71.1752 503.595 70.8132C502.899 70.4512 502.363 69.936 501.987 69.2677C501.611 68.5994 501.423 67.8128 501.423 66.9078V63.9423C501.423 63.0234 501.611 62.2367 501.987 61.5824C502.363 60.9141 502.899 60.3989 503.595 60.0369C504.291 59.6749 505.113 59.4939 506.06 59.4939C507.006 59.4939 507.828 59.6749 508.524 60.0369C509.22 60.3989 509.756 60.9141 510.132 61.5824C510.508 62.2367 510.696 63.0234 510.696 63.9423V66.9078C510.696 67.8128 510.508 68.5994 510.132 69.2677C509.756 69.936 509.22 70.4512 508.524 70.8132C507.828 71.1752 507.006 71.3562 506.06 71.3562ZM506.06 69.3722C506.825 69.3722 507.417 69.1633 507.835 68.7456C508.252 68.314 508.461 67.7014 508.461 66.9078V63.9423C508.461 63.1347 508.252 62.5221 507.835 62.1045C507.417 61.6868 506.825 61.4779 506.06 61.4779C505.308 61.4779 504.716 61.6868 504.284 62.1045C503.867 62.5221 503.658 63.1347 503.658 63.9423V66.9078C503.658 67.7014 503.867 68.314 504.284 68.7456C504.716 69.1633 505.308 69.3722 506.06 69.3722ZM513.027 71.1682V59.6819H515.261V61.8747H515.804L515.261 62.3968C515.261 61.4779 515.533 60.7609 516.076 60.2458C516.619 59.7306 517.371 59.473 518.331 59.473C519.473 59.473 520.385 59.842 521.067 60.5799C521.749 61.3039 522.091 62.2855 522.091 63.5246V71.1682H519.835V63.7752C519.835 63.0234 519.633 62.4456 519.229 62.0418C518.826 61.638 518.276 61.4362 517.58 61.4362C516.869 61.4362 516.306 61.652 515.888 62.0836C515.484 62.5013 515.282 63.1139 515.282 63.9214V71.1682H513.027ZM385.623 112.377C384.676 112.377 383.847 112.203 383.137 111.855C382.441 111.493 381.898 110.978 381.508 110.31C381.133 109.627 380.945 108.834 380.945 107.929V101.162C380.945 100.243 381.133 99.4497 381.508 98.7814C381.898 98.1131 382.441 97.605 383.137 97.2569C383.847 96.8949 384.676 96.7139 385.623 96.7139C386.569 96.7139 387.391 96.8949 388.087 97.2569C388.783 97.6189 389.319 98.134 389.695 98.8023C390.085 99.4567 390.28 100.243 390.28 101.162H388.024C388.024 100.369 387.815 99.763 387.398 99.3453C386.98 98.9276 386.388 98.7188 385.623 98.7188C384.857 98.7188 384.258 98.9276 383.827 99.3453C383.409 99.763 383.2 100.362 383.2 101.141V107.929C383.2 108.708 383.409 109.314 383.827 109.746C384.258 110.163 384.857 110.372 385.623 110.372C386.388 110.372 386.98 110.163 387.398 109.746C387.815 109.314 388.024 108.708 388.024 107.929H390.28C390.28 108.834 390.085 109.62 389.695 110.289C389.319 110.957 388.783 111.472 388.087 111.834C387.391 112.196 386.569 112.377 385.623 112.377ZM397.017 112.356C396.07 112.356 395.249 112.175 394.553 111.813C393.857 111.451 393.321 110.936 392.945 110.268C392.569 109.599 392.381 108.813 392.381 107.908V104.942C392.381 104.023 392.569 103.237 392.945 102.582C393.321 101.914 393.857 101.399 394.553 101.037C395.249 100.675 396.07 100.494 397.017 100.494C397.964 100.494 398.785 100.675 399.482 101.037C400.178 101.399 400.714 101.914 401.09 102.582C401.466 103.237 401.654 104.023 401.654 104.942V107.908C401.654 108.813 401.466 109.599 401.09 110.268C400.714 110.936 400.178 111.451 399.482 111.813C398.785 112.175 397.964 112.356 397.017 112.356ZM397.017 110.372C397.783 110.372 398.375 110.163 398.792 109.746C399.21 109.314 399.419 108.701 399.419 107.908V104.942C399.419 104.135 399.21 103.522 398.792 103.104C398.375 102.687 397.783 102.478 397.017 102.478C396.265 102.478 395.674 102.687 395.242 103.104C394.824 103.522 394.616 104.135 394.616 104.942V107.908C394.616 108.701 394.824 109.314 395.242 109.746C395.674 110.163 396.265 110.372 397.017 110.372ZM405.488 115.927V113.985H409.017C409.602 113.985 410.034 113.846 410.312 113.567C410.605 113.289 410.751 112.878 410.751 112.335V111.187L410.793 109.056H410.312L410.772 108.639C410.772 109.516 410.493 110.205 409.936 110.706C409.393 111.208 408.655 111.458 407.723 111.458C406.539 111.458 405.606 111.068 404.924 110.289C404.242 109.509 403.901 108.458 403.901 107.135V104.796C403.901 103.473 404.242 102.422 404.924 101.643C405.606 100.863 406.539 100.473 407.723 100.473C408.655 100.473 409.393 100.731 409.936 101.246C410.493 101.747 410.772 102.436 410.772 103.313L410.312 102.875H410.772L410.751 100.682H412.985V112.377C412.985 113.477 412.637 114.34 411.941 114.967C411.245 115.607 410.277 115.927 409.038 115.927H405.488ZM408.454 109.516C409.164 109.516 409.721 109.3 410.124 108.868C410.542 108.423 410.751 107.81 410.751 107.031V104.921C410.751 104.142 410.542 103.536 410.124 103.104C409.721 102.659 409.164 102.436 408.454 102.436C407.716 102.436 407.145 102.652 406.741 103.084C406.351 103.501 406.156 104.114 406.156 104.921V107.031C406.156 107.824 406.351 108.437 406.741 108.868C407.145 109.3 407.716 109.516 408.454 109.516ZM415.463 112.168V100.682H417.697V102.875H418.24L417.697 103.397C417.697 102.478 417.969 101.761 418.512 101.246C419.055 100.731 419.806 100.473 420.767 100.473C421.909 100.473 422.821 100.842 423.503 101.58C424.185 102.304 424.526 103.285 424.526 104.525V112.168H422.271V104.775C422.271 104.023 422.069 103.446 421.665 103.042C421.261 102.638 420.711 102.436 420.015 102.436C419.305 102.436 418.741 102.652 418.324 103.084C417.92 103.501 417.718 104.114 417.718 104.921V112.168H415.463ZM426.878 112.168V110.122H430.909V102.729H427.4V100.682H433.102V110.122H436.798V112.168H426.878ZM431.786 98.6979C431.299 98.6979 430.909 98.5726 430.616 98.322C430.324 98.0574 430.178 97.7094 430.178 97.2778C430.178 96.8322 430.324 96.4842 430.616 96.2336C430.909 95.969 431.299 95.8368 431.786 95.8368C432.273 95.8368 432.663 95.969 432.955 96.2336C433.248 96.4842 433.394 96.8322 433.394 97.2778C433.394 97.7094 433.248 98.0574 432.955 98.322C432.663 98.5726 432.273 98.6979 431.786 98.6979ZM444.183 112.168C443.139 112.168 442.324 111.883 441.739 111.312C441.155 110.741 440.862 109.948 440.862 108.931V102.729H437.688V100.682H440.862V97.4448H443.118V100.682H447.608V102.729H443.118V108.931C443.118 109.725 443.501 110.122 444.266 110.122H447.399V112.168H444.183ZM449.834 112.168V110.122H453.865V102.729H450.356V100.682H456.058V110.122H459.754V112.168H449.834ZM454.742 98.6979C454.255 98.6979 453.865 98.5726 453.573 98.322C453.28 98.0574 453.134 97.7094 453.134 97.2778C453.134 96.8322 453.28 96.4842 453.573 96.2336C453.865 95.969 454.255 95.8368 454.742 95.8368C455.229 95.8368 455.619 95.969 455.912 96.2336C456.204 96.4842 456.35 96.8322 456.35 97.2778C456.35 97.7094 456.204 98.0574 455.912 98.322C455.619 98.5726 455.229 98.6979 454.742 98.6979ZM465.886 112.356C464.939 112.356 464.118 112.175 463.422 111.813C462.726 111.451 462.19 110.936 461.814 110.268C461.438 109.599 461.25 108.813 461.25 107.908V104.942C461.25 104.023 461.438 103.237 461.814 102.582C462.19 101.914 462.726 101.399 463.422 101.037C464.118 100.675 464.939 100.494 465.886 100.494C466.833 100.494 467.654 100.675 468.35 101.037C469.047 101.399 469.583 101.914 469.959 102.582C470.334 103.237 470.522 104.023 470.522 104.942V107.908C470.522 108.813 470.334 109.599 469.959 110.268C469.583 110.936 469.047 111.451 468.35 111.813C467.654 112.175 466.833 112.356 465.886 112.356ZM465.886 110.372C466.652 110.372 467.244 110.163 467.661 109.746C468.079 109.314 468.288 108.701 468.288 107.908V104.942C468.288 104.135 468.079 103.522 467.661 103.104C467.244 102.687 466.652 102.478 465.886 102.478C465.134 102.478 464.543 102.687 464.111 103.104C463.693 103.522 463.484 104.135 463.484 104.942V107.908C463.484 108.701 463.693 109.314 464.111 109.746C464.543 110.163 465.134 110.372 465.886 110.372ZM472.853 112.168V100.682H475.088V102.875H475.631L475.088 103.397C475.088 102.478 475.359 101.761 475.902 101.246C476.445 100.731 477.197 100.473 478.158 100.473C479.3 100.473 480.211 100.842 480.894 101.58C481.576 102.304 481.917 103.285 481.917 104.525V112.168H479.662V104.775C479.662 104.023 479.46 103.446 479.056 103.042C478.652 102.638 478.102 102.436 477.406 102.436C476.696 102.436 476.132 102.652 475.714 103.084C475.311 103.501 475.109 104.114 475.109 104.921V112.168H472.853ZM397.389 153.168L401.274 137.923H404.239L408.124 153.168H405.847L404.928 149.305H400.605L399.686 153.168H397.389ZM401.023 147.446H404.49L403.445 143.039C403.264 142.26 403.111 141.584 402.986 141.014C402.875 140.429 402.798 140.032 402.756 139.823C402.715 140.032 402.638 140.429 402.527 141.014C402.415 141.584 402.262 142.253 402.067 143.018L401.023 147.446ZM414.318 153.377C413.371 153.377 412.536 153.203 411.812 152.855C411.102 152.493 410.552 151.978 410.162 151.31C409.786 150.627 409.598 149.834 409.598 148.929V145.921C409.598 145.002 409.786 144.209 410.162 143.541C410.552 142.872 411.102 142.364 411.812 142.016C412.536 141.654 413.371 141.473 414.318 141.473C415.696 141.473 416.803 141.835 417.639 142.559C418.474 143.283 418.913 144.272 418.954 145.525H416.699C416.657 144.87 416.427 144.362 416.01 144C415.592 143.638 415.028 143.457 414.318 143.457C413.552 143.457 412.947 143.673 412.501 144.104C412.056 144.522 411.833 145.121 411.833 145.9V148.929C411.833 149.708 412.056 150.314 412.501 150.746C412.947 151.177 413.552 151.393 414.318 151.393C415.028 151.393 415.592 151.212 416.01 150.85C416.427 150.488 416.657 149.98 416.699 149.326H418.954C418.913 150.579 418.474 151.567 417.639 152.291C416.803 153.015 415.696 153.377 414.318 153.377ZM426.966 153.168C425.921 153.168 425.107 152.883 424.522 152.312C423.937 151.741 423.645 150.948 423.645 149.931V143.729H420.471V141.682H423.645V138.445H425.901V141.682H430.391V143.729H425.901V149.931C425.901 150.725 426.283 151.122 427.049 151.122H430.182V153.168H426.966ZM432.617 153.168V151.122H436.648V143.729H433.139V141.682H438.841V151.122H442.537V153.168H432.617ZM437.525 139.698C437.038 139.698 436.648 139.573 436.355 139.322C436.063 139.057 435.917 138.709 435.917 138.278C435.917 137.832 436.063 137.484 436.355 137.234C436.648 136.969 437.038 136.837 437.525 136.837C438.012 136.837 438.402 136.969 438.694 137.234C438.987 137.484 439.133 137.832 439.133 138.278C439.133 138.709 438.987 139.057 438.694 139.322C438.402 139.573 438.012 139.698 437.525 139.698ZM448.669 153.356C447.722 153.356 446.901 153.175 446.205 152.813C445.508 152.451 444.972 151.936 444.596 151.268C444.221 150.599 444.033 149.813 444.033 148.908V145.942C444.033 145.023 444.221 144.237 444.596 143.582C444.972 142.914 445.508 142.399 446.205 142.037C446.901 141.675 447.722 141.494 448.669 141.494C449.616 141.494 450.437 141.675 451.133 142.037C451.829 142.399 452.365 142.914 452.741 143.582C453.117 144.237 453.305 145.023 453.305 145.942V148.908C453.305 149.813 453.117 150.599 452.741 151.268C452.365 151.936 451.829 152.451 451.133 152.813C450.437 153.175 449.616 153.356 448.669 153.356ZM448.669 151.372C449.435 151.372 450.026 151.163 450.444 150.746C450.862 150.314 451.071 149.701 451.071 148.908V145.942C451.071 145.135 450.862 144.522 450.444 144.104C450.026 143.687 449.435 143.478 448.669 143.478C447.917 143.478 447.325 143.687 446.894 144.104C446.476 144.522 446.267 145.135 446.267 145.942V148.908C446.267 149.701 446.476 150.314 446.894 150.746C447.325 151.163 447.917 151.372 448.669 151.372ZM455.636 153.168V141.682H457.871V143.875H458.414L457.871 144.397C457.871 143.478 458.142 142.761 458.685 142.246C459.228 141.731 459.98 141.473 460.941 141.473C462.082 141.473 462.994 141.842 463.676 142.58C464.359 143.304 464.7 144.285 464.7 145.525V153.168H462.444V145.775C462.444 145.023 462.242 144.446 461.839 144.042C461.435 143.638 460.885 143.436 460.189 143.436C459.479 143.436 458.915 143.652 458.497 144.084C458.093 144.501 457.892 145.114 457.892 145.921V153.168H455.636Z" fill="black" style="fill:black;fill-opacity:1;"/>
<line x1="291" y1="85" x2="291" y2="128.33" stroke="black" stroke-opacity="0.2" style="stroke:black;stroke-opacity:0.2;" stroke-width="2"/>
<line x1="571" y1="85" x2="571" y2="317" stroke="black" stroke-opacity="0.2" style="stroke:black;stroke-opacity:0.2;" stroke-width="2"/>
<line x1="291" y1="20" x2="291" y2="73" stroke="black" stroke-opacity="0.2" style="stroke:black;stroke-opacity:0.2;" stroke-width="2"/>
<line x1="571" y1="20" x2="571" y2="72.5645" stroke="black" stroke-opacity="0.2" style="stroke:black;stroke-opacity:0.2;" stroke-width="2"/>
<line x1="66" y1="318" x2="174.681" y2="318" stroke="black" stroke-opacity="0.2" style="stroke:black;stroke-opacity:0.2;" stroke-width="2"/>
<line x1="572.001" y1="318" x2="463.058" y2="318.101" stroke="black" stroke-opacity="0.2" style="stroke:black;stroke-opacity:0.2;" stroke-width="2"/>
<line x1="186" y1="318" x2="230.04" y2="318" stroke="black" stroke-opacity="0.2" style="stroke:black;stroke-opacity:0.2;" stroke-width="2"/>
<line x1="450.271" y1="318.101" x2="406.231" y2="318.101" stroke="black" stroke-opacity="0.2" style="stroke:black;stroke-opacity:0.2;" stroke-width="2"/>
<line x1="292" y1="21" x2="368.716" y2="21" stroke="black" stroke-opacity="0.2" style="stroke:black;stroke-opacity:0.2;" stroke-width="2"/>
<line x1="411" y1="21" x2="570" y2="21" stroke="black" stroke-opacity="0.2" style="stroke:black;stroke-opacity:0.2;" stroke-width="2"/>
<line x1="67" y1="317" x2="67" y2="199" stroke="black" stroke-opacity="0.2" style="stroke:black;stroke-opacity:0.2;" stroke-width="2"/>
<path d="M184.608 318.167L176.616 322.781L176.616 313.553L184.608 318.167Z" fill="#ABB2FA" style="fill:#ABB2FA;fill:color(display-p3 0.6706 0.6990 0.9799);fill-opacity:1;"/>
<path d="M452.402 318.167L460.393 313.553L460.393 322.78L452.402 318.167Z" fill="#ABB2FA" style="fill:#ABB2FA;fill:color(display-p3 0.6706 0.6990 0.9799);fill-opacity:1;"/>
<path d="M290.802 83.4026L286.188 75.4114L295.416 75.4114L290.802 83.4026Z" fill="#ABB2FA" style="fill:#ABB2FA;fill:color(display-p3 0.6706 0.6990 0.9799);fill-opacity:1;"/>
<path d="M571 83L565.804 74.75L576.196 74.75L571 83Z" fill="#ABB2FA" style="fill:#ABB2FA;fill:color(display-p3 0.6706 0.6990 0.9799);fill-opacity:1;"/>
<path fill-rule="evenodd" clip-rule="evenodd" d="M298.481 353.386C319.38 353.386 336.322 336.444 336.322 315.545C336.322 294.646 319.38 277.703 298.481 277.703C277.582 277.703 260.64 294.646 260.64 315.545C260.64 336.444 277.582 353.386 298.481 353.386ZM290.347 302.393C288.961 301.008 286.715 301.008 285.33 302.393C283.944 303.779 283.944 306.025 285.33 307.41L293.464 315.545L285.33 323.679C283.944 325.064 283.944 327.311 285.33 328.696C286.715 330.081 288.961 330.081 290.347 328.696L298.481 320.562L306.615 328.696C308.001 330.081 310.247 330.081 311.633 328.696C313.018 327.311 313.018 325.064 311.633 323.679L303.498 315.545L311.633 307.41C313.018 306.025 313.018 303.779 311.633 302.393C310.247 301.008 308.001 301.008 306.615 302.393L298.481 310.528L290.347 302.393Z" fill="#D87171" style="fill:#D87171;fill:color(display-p3 0.8473 0.4447 0.4447);fill-opacity:1;"/>
<path fill-rule="evenodd" clip-rule="evenodd" d="M338.845 391.227C359.744 391.227 376.686 374.285 376.686 353.386C376.686 332.487 359.744 315.545 338.845 315.545C317.946 315.545 301.004 332.487 301.004 353.386C301.004 374.285 317.946 391.227 338.845 391.227ZM357.087 344.83C358.24 343.245 357.889 341.026 356.305 339.874C354.72 338.722 352.501 339.072 351.349 340.656L334.87 363.315L325.981 354.425C324.595 353.04 322.349 353.04 320.963 354.425C319.578 355.81 319.578 358.057 320.963 359.442L332.789 371.267C333.523 372.001 334.541 372.377 335.575 372.296C336.609 372.214 337.556 371.685 338.166 370.845L357.087 344.83Z" fill="#48B159" style="fill:#48B159;fill:color(display-p3 0.2812 0.6957 0.3503);fill-opacity:1;"/>
<rect y="146.255" width="37.8412" height="37.8412" fill="#7780D9" style="fill:#7780D9;fill:color(display-p3 0.4667 0.5020 0.8510);fill-opacity:1;"/>
<rect x="2.91087" y="149.166" width="32.0195" height="32.0195" fill="#B9BFFF" style="fill:#B9BFFF;fill:color(display-p3 0.7246 0.7499 1.0000);fill-opacity:1;"/>
<path d="M4.3663 150.621H7.27716V153.532H4.3663V150.621Z" fill="#B0B7FF" style="fill:#B0B7FF;fill:color(display-p3 0.6897 0.7182 1.0000);fill-opacity:1;"/>
<path d="M4.3663 154.987H7.27716V157.898H4.3663V154.987Z" fill="#B0B7FF" style="fill:#B0B7FF;fill:color(display-p3 0.6897 0.7182 1.0000);fill-opacity:1;"/>
<path d="M4.3663 159.354H7.27716V162.265H4.3663V159.354Z" fill="#B0B7FF" style="fill:#B0B7FF;fill:color(display-p3 0.6897 0.7182 1.0000);fill-opacity:1;"/>
<path d="M4.3663 163.72H7.27716V166.631H4.3663V163.72Z" fill="#ABB2FA" style="fill:#ABB2FA;fill:color(display-p3 0.6706 0.6990 0.9799);fill-opacity:1;"/>
<path d="M4.3663 168.086H7.27716V170.997H4.3663V168.086Z" fill="#ABB2FA" style="fill:#ABB2FA;fill:color(display-p3 0.6706 0.6990 0.9799);fill-opacity:1;"/>
<path d="M4.3663 172.453H7.27716V175.364H4.3663V172.453Z" fill="#ABB2FA" style="fill:#ABB2FA;fill:color(display-p3 0.6706 0.6990 0.9799);fill-opacity:1;"/>
<path d="M4.3663 176.819H7.27716V179.73H4.3663V176.819Z" fill="#969FF4" style="fill:#969FF4;fill:color(display-p3 0.5882 0.6220 0.9566);fill-opacity:1;"/>
<path d="M17.4652 150.621H20.3761V153.532H17.4652V150.621Z" fill="#ABB2FA" style="fill:#ABB2FA;fill:color(display-p3 0.6706 0.6990 0.9799);fill-opacity:1;"/>
<path d="M17.4652 154.987H20.3761V157.898H17.4652V154.987Z" fill="#ABB2FA" style="fill:#ABB2FA;fill:color(display-p3 0.6706 0.6990 0.9799);fill-opacity:1;"/>
<path d="M17.4652 159.354H20.3761V162.265H17.4652V159.354Z" fill="#ABB2FA" style="fill:#ABB2FA;fill:color(display-p3 0.6706 0.6990 0.9799);fill-opacity:1;"/>
<path d="M17.4652 163.72H20.3761V166.631H17.4652V163.72Z" fill="#969FF4" style="fill:#969FF4;fill:color(display-p3 0.5882 0.6220 0.9566);fill-opacity:1;"/>
<path d="M17.4652 168.086H20.3761V170.997H17.4652V168.086Z" fill="#969FF4" style="fill:#969FF4;fill:color(display-p3 0.5882 0.6220 0.9566);fill-opacity:1;"/>
<path d="M17.4652 172.453H20.3761V175.364H17.4652V172.453Z" fill="#969FF4" style="fill:#969FF4;fill:color(display-p3 0.5882 0.6220 0.9566);fill-opacity:1;"/>
<path d="M17.4652 176.819H20.3761V179.73H17.4652V176.819Z" fill="#969FF4" style="fill:#969FF4;fill:color(display-p3 0.5882 0.6220 0.9566);fill-opacity:1;"/>
<path d="M8.73259 150.621H11.6435V153.532H8.73259V150.621Z" fill="#B0B7FF" style="fill:#B0B7FF;fill:color(display-p3 0.6897 0.7182 1.0000);fill-opacity:1;"/>
<path d="M8.73259 154.987H11.6435V157.898H8.73259V154.987Z" fill="#B0B7FF" style="fill:#B0B7FF;fill:color(display-p3 0.6897 0.7182 1.0000);fill-opacity:1;"/>
<path d="M8.73259 159.354H11.6435V162.265H8.73259V159.354Z" fill="#ABB2FA" style="fill:#ABB2FA;fill:color(display-p3 0.6706 0.6990 0.9799);fill-opacity:1;"/>
<path d="M8.73259 163.72H11.6435V166.631H8.73259V163.72Z" fill="#ABB2FA" style="fill:#ABB2FA;fill:color(display-p3 0.6706 0.6990 0.9799);fill-opacity:1;"/>
<path d="M8.73259 168.086H11.6435V170.997H8.73259V168.086Z" fill="#ABB2FA" style="fill:#ABB2FA;fill:color(display-p3 0.6706 0.6990 0.9799);fill-opacity:1;"/>
<path d="M8.73259 172.453H11.6435V175.364H8.73259V172.453Z" fill="#969FF4" style="fill:#969FF4;fill:color(display-p3 0.5882 0.6220 0.9566);fill-opacity:1;"/>
<path d="M8.73259 176.819H11.6435V179.73H8.73259V176.819Z" fill="#969FF4" style="fill:#969FF4;fill:color(display-p3 0.5882 0.6220 0.9566);fill-opacity:1;"/>
<path d="M21.8315 150.621H24.7424V153.532H21.8315V150.621Z" fill="#ABB2FA" style="fill:#ABB2FA;fill:color(display-p3 0.6706 0.6990 0.9799);fill-opacity:1;"/>
<path d="M21.8315 154.987H24.7424V157.898H21.8315V154.987Z" fill="#ABB2FA" style="fill:#ABB2FA;fill:color(display-p3 0.6706 0.6990 0.9799);fill-opacity:1;"/>
<path d="M21.8315 159.354H24.7424V162.265H21.8315V159.354Z" fill="#969FF4" style="fill:#969FF4;fill:color(display-p3 0.5882 0.6220 0.9566);fill-opacity:1;"/>
<path d="M21.8315 163.72H24.7424V166.631H21.8315V163.72Z" fill="#969FF4" style="fill:#969FF4;fill:color(display-p3 0.5882 0.6220 0.9566);fill-opacity:1;"/>
<path d="M21.8315 168.086H24.7424V170.997H21.8315V168.086Z" fill="#969FF4" style="fill:#969FF4;fill:color(display-p3 0.5882 0.6220 0.9566);fill-opacity:1;"/>
<path d="M21.8315 172.453H24.7424V175.364H21.8315V172.453Z" fill="#969FF4" style="fill:#969FF4;fill:color(display-p3 0.5882 0.6220 0.9566);fill-opacity:1;"/>
<path d="M21.8315 176.819H24.7424V179.73H21.8315V176.819Z" fill="#969FF4" style="fill:#969FF4;fill:color(display-p3 0.5882 0.6220 0.9566);fill-opacity:1;"/>
<path d="M13.0989 150.621H16.0098V153.532H13.0989V150.621Z" fill="#B0B7FF" style="fill:#B0B7FF;fill:color(display-p3 0.6897 0.7182 1.0000);fill-opacity:1;"/>
<path d="M13.0989 154.987H16.0098V157.898H13.0989V154.987Z" fill="#ABB2FA" style="fill:#ABB2FA;fill:color(display-p3 0.6706 0.6990 0.9799);fill-opacity:1;"/>
<path d="M13.0989 159.354H16.0098V162.265H13.0989V159.354Z" fill="#ABB2FA" style="fill:#ABB2FA;fill:color(display-p3 0.6706 0.6990 0.9799);fill-opacity:1;"/>
<path d="M13.0989 163.72H16.0098V166.631H13.0989V163.72Z" fill="#ABB2FA" style="fill:#ABB2FA;fill:color(display-p3 0.6706 0.6990 0.9799);fill-opacity:1;"/>
<path d="M13.0989 168.086H16.0098V170.997H13.0989V168.086Z" fill="#969FF4" style="fill:#969FF4;fill:color(display-p3 0.5882 0.6220 0.9566);fill-opacity:1;"/>
<path d="M13.0989 172.453H16.0098V175.364H13.0989V172.453Z" fill="#969FF4" style="fill:#969FF4;fill:color(display-p3 0.5882 0.6220 0.9566);fill-opacity:1;"/>
<path d="M13.0989 176.819H16.0098V179.73H13.0989V176.819Z" fill="#969FF4" style="fill:#969FF4;fill:color(display-p3 0.5882 0.6220 0.9566);fill-opacity:1;"/>
<path d="M26.1978 150.621H29.1086V153.532H26.1978V150.621Z" fill="#ABB2FA" style="fill:#ABB2FA;fill:color(display-p3 0.6706 0.6990 0.9799);fill-opacity:1;"/>
<path d="M26.1978 154.987H29.1086V157.898H26.1978V154.987Z" fill="#969FF4" style="fill:#969FF4;fill:color(display-p3 0.5882 0.6220 0.9566);fill-opacity:1;"/>
<path d="M26.1978 159.354H29.1086V162.265H26.1978V159.354Z" fill="#969FF4" style="fill:#969FF4;fill:color(display-p3 0.5882 0.6220 0.9566);fill-opacity:1;"/>
<path d="M26.1978 163.72H29.1086V166.631H26.1978V163.72Z" fill="#969FF4" style="fill:#969FF4;fill:color(display-p3 0.5882 0.6220 0.9566);fill-opacity:1;"/>
<path d="M26.1978 168.086H29.1086V170.997H26.1978V168.086Z" fill="#969FF4" style="fill:#969FF4;fill:color(display-p3 0.5882 0.6220 0.9566);fill-opacity:1;"/>
<path d="M26.1978 172.453H29.1086V175.364H26.1978V172.453Z" fill="#969FF4" style="fill:#969FF4;fill:color(display-p3 0.5882 0.6220 0.9566);fill-opacity:1;"/>
<path d="M26.1978 176.819H29.1086V179.73H26.1978V176.819Z" fill="#969FF4" style="fill:#969FF4;fill:color(display-p3 0.5882 0.6220 0.9566);fill-opacity:1;"/>
<path d="M30.5641 150.621H33.4749V153.532H30.5641V150.621Z" fill="#969FF4" style="fill:#969FF4;fill:color(display-p3 0.5882 0.6220 0.9566);fill-opacity:1;"/>
<path d="M30.5641 154.987H33.4749V157.898H30.5641V154.987Z" fill="#969FF4" style="fill:#969FF4;fill:color(display-p3 0.5882 0.6220 0.9566);fill-opacity:1;"/>
<path d="M30.5641 159.354H33.4749V162.265H30.5641V159.354Z" fill="#969FF4" style="fill:#969FF4;fill:color(display-p3 0.5882 0.6220 0.9566);fill-opacity:1;"/>
<path d="M30.5641 163.72H33.4749V166.631H30.5641V163.72Z" fill="#969FF4" style="fill:#969FF4;fill:color(display-p3 0.5882 0.6220 0.9566);fill-opacity:1;"/>
<path d="M30.5641 168.086H33.4749V170.997H30.5641V168.086Z" fill="#969FF4" style="fill:#969FF4;fill:color(display-p3 0.5882 0.6220 0.9566);fill-opacity:1;"/>
<path d="M30.5641 172.453H33.4749V175.364H30.5641V172.453Z" fill="#969FF4" style="fill:#969FF4;fill:color(display-p3 0.5882 0.6220 0.9566);fill-opacity:1;"/>
<path d="M30.5641 176.819H33.4749V179.73H30.5641V176.819Z" fill="#969FF4" style="fill:#969FF4;fill:color(display-p3 0.5882 0.6220 0.9566);fill-opacity:1;"/>
<circle cx="389.5" cy="17.5" r="17" fill="url(#paint0_linear_186_601)" stroke="#B0B7FF" style="stroke:#B0B7FF;stroke:color(display-p3 0.6897 0.7182 1.0000);stroke-opacity:1;"/>
<defs>
<linearGradient id="paint0_linear_186_601" x1="389.949" y1="-6.28205" x2="389.5" y2="35" gradientUnits="userSpaceOnUse">
<stop stop-color="#5A57E9" style="stop-color:#5A57E9;stop-color:color(display-p3 0.3512 0.3417 0.9119);stop-opacity:1;"/>
<stop offset="1" stop-color="white" style="stop-color:white;stop-opacity:1;"/>
</linearGradient>
</defs>
</svg>
